<svg width="421" height="301" viewBox="0 0 421 301" fill="none" xmlns="http://www.w3.org/2000/svg">
<g clip-path="url(#clip0_1_1141)">
<rect width="420.42" height="300.3" fill="#F96A04"/>
<rect x="193.2" y="-18.06" width="33.6" height="33.6" stroke="black" stroke-width="1.26" stroke-dasharray="2.52 2.52"/>
<rect x="226.8" y="-18.06" width="33.6" height="33.6" stroke="black" stroke-width="1.26" stroke-dasharray="2.52 2.52"/>
<rect x="260.4" y="-18.06" width="33.6" height="33.6" stroke="black" stroke-width="1.26" stroke-dasharray="2.52 2.52"/>
<rect x="294" y="-18.06" width="33.6" height="33.6" stroke="black" stroke-width="1.26" stroke-dasharray="2.52 2.52"/>
<rect x="327.6" y="-18.06" width="33.6" height="33.6" stroke="black" stroke-width="1.26" stroke-dasharray="2.52 2.52"/>
<rect x="361.2" y="-18.06" width="33.6" height="33.6" stroke="black" stroke-width="1.26" stroke-dasharray="2.52 2.52"/>
<rect x="394.8" y="-18.06" width="33.6" height="33.6" stroke="black" stroke-width="1.26" stroke-dasharray="2.52 2.52"/>
<rect x="193.2" y="15.54" width="33.6" height="33.6" stroke="black" stroke-width="1.26" stroke-dasharray="2.52 2.52"/>
<rect x="226.8" y="15.54" width="33.6" height="33.6" stroke="black" stroke-width="1.26" stroke-dasharray="2.52 2.52"/>
<rect x="260.4" y="15.54" width="33.6" height="33.6" stroke="black" stroke-width="1.26" stroke-dasharray="2.52 2.52"/>
<rect x="294" y="15.54" width="33.6" height="33.6" stroke="black" stroke-width="1.26" stroke-dasharray="2.52 2.52"/>
<rect x="327.6" y="15.54" width="33.6" height="33.6" stroke="black" stroke-width="1.26" stroke-dasharray="2.52 2.52"/>
<rect x="361.2" y="15.54" width="33.6" height="33.6" stroke="black" stroke-width="1.26" stroke-dasharray="2.52 2.52"/>
<rect x="394.8" y="15.54" width="33.6" height="33.6" stroke="black" stroke-width="1.26" stroke-dasharray="2.52 2.52"/>
<rect x="193.2" y="49.14" width="33.6" height="33.6" stroke="black" stroke-width="1.26" stroke-dasharray="2.52 2.52"/>
<rect x="226.8" y="49.14" width="33.6" height="33.6" stroke="black" stroke-width="1.26" stroke-dasharray="2.52 2.52"/>
<rect x="260.4" y="49.14" width="33.6" height="33.6" stroke="black" stroke-width="1.26" stroke-dasharray="2.52 2.52"/>
<rect x="294" y="49.14" width="33.6" height="33.6" stroke="black" stroke-width="1.26" stroke-dasharray="2.52 2.52"/>
<rect x="327.6" y="49.14" width="33.6" height="33.6" stroke="black" stroke-width="1.26" stroke-dasharray="2.52 2.52"/>
<rect x="361.2" y="49.14" width="33.6" height="33.6" stroke="black" stroke-width="1.26" stroke-dasharray="2.52 2.52"/>
<rect x="394.8" y="49.14" width="33.6" height="33.6" stroke="black" stroke-width="1.26" stroke-dasharray="2.52 2.52"/>
<rect x="193.2" y="82.74" width="33.6" height="33.6" stroke="black" stroke-width="1.26" stroke-dasharray="2.52 2.52"/>
<rect x="226.8" y="82.74" width="33.6" height="33.6" stroke="black" stroke-width="1.26" stroke-dasharray="2.52 2.52"/>
<rect x="260.4" y="82.74" width="33.6" height="33.6" stroke="black" stroke-width="1.26" stroke-dasharray="2.52 2.52"/>
<rect x="294" y="82.74" width="33.6" height="33.6" stroke="black" stroke-width="1.26" stroke-dasharray="2.52 2.52"/>
<rect x="327.6" y="82.74" width="33.6" height="33.6" stroke="black" stroke-width="1.26" stroke-dasharray="2.52 2.52"/>
<rect x="361.2" y="82.74" width="33.6" height="33.6" stroke="black" stroke-width="1.26" stroke-dasharray="2.52 2.52"/>
<rect x="394.8" y="82.74" width="33.6" height="33.6" stroke="black" stroke-width="1.26" stroke-dasharray="2.52 2.52"/>
<rect x="193.2" y="116.34" width="33.6" height="33.6" stroke="black" stroke-width="1.26" stroke-dasharray="2.52 2.52"/>
<rect x="226.8" y="116.34" width="33.6" height="33.6" stroke="black" stroke-width="1.26" stroke-dasharray="2.52 2.52"/>
<rect x="260.4" y="116.34" width="33.6" height="33.6" stroke="black" stroke-width="1.26" stroke-dasharray="2.52 2.52"/>
<rect x="294" y="116.34" width="33.6" height="33.6" stroke="black" stroke-width="1.26" stroke-dasharray="2.52 2.52"/>
<rect x="327.6" y="116.34" width="33.6" height="33.6" stroke="black" stroke-width="1.26" stroke-dasharray="2.52 2.52"/>
<rect x="361.2" y="116.34" width="33.6" height="33.6" stroke="black" stroke-width="1.26" stroke-dasharray="2.52 2.52"/>
<rect x="394.8" y="116.34" width="33.6" height="33.6" stroke="black" stroke-width="1.26" stroke-dasharray="2.52 2.52"/>
<rect x="193.2" y="149.94" width="33.6" height="33.6" stroke="black" stroke-width="1.26" stroke-dasharray="2.52 2.52"/>
<rect x="226.8" y="149.94" width="33.6" height="33.6" stroke="black" stroke-width="1.26" stroke-dasharray="2.52 2.52"/>
<rect x="260.4" y="149.94" width="33.6" height="33.6" stroke="black" stroke-width="1.26" stroke-dasharray="2.52 2.52"/>
<rect x="294" y="149.94" width="33.6" height="33.6" stroke="black" stroke-width="1.26" stroke-dasharray="2.52 2.52"/>
<rect x="327.6" y="149.94" width="33.6" height="33.6" stroke="black" stroke-width="1.26" stroke-dasharray="2.52 2.52"/>
<rect x="361.2" y="149.94" width="33.6" height="33.6" stroke="black" stroke-width="1.26" stroke-dasharray="2.52 2.52"/>
<rect x="394.8" y="149.94" width="33.6" height="33.6" stroke="black" stroke-width="1.26" stroke-dasharray="2.52 2.52"/>
<rect x="193.2" y="183.54" width="33.6" height="33.6" stroke="black" stroke-width="1.26" stroke-dasharray="2.52 2.52"/>
<rect x="226.8" y="183.54" width="33.6" height="33.6" stroke="black" stroke-width="1.26" stroke-dasharray="2.52 2.52"/>
<rect x="260.4" y="183.54" width="33.6" height="33.6" stroke="black" stroke-width="1.26" stroke-dasharray="2.52 2.52"/>
<rect x="294" y="183.54" width="33.6" height="33.6" stroke="black" stroke-width="1.26" stroke-dasharray="2.52 2.52"/>
<rect x="327.6" y="183.54" width="33.6" height="33.6" stroke="black" stroke-width="1.26" stroke-dasharray="2.52 2.52"/>
<rect x="361.2" y="183.54" width="33.6" height="33.6" stroke="black" stroke-width="1.26" stroke-dasharray="2.52 2.52"/>
<rect x="394.8" y="183.54" width="33.6" height="33.6" stroke="black" stroke-width="1.26" stroke-dasharray="2.52 2.52"/>
<rect x="193.2" y="217.14" width="33.6" height="33.6" stroke="black" stroke-width="1.26" stroke-dasharray="2.52 2.52"/>
<rect x="226.8" y="217.14" width="33.6" height="33.6" stroke="black" stroke-width="1.26" stroke-dasharray="2.52 2.52"/>
<rect x="260.4" y="217.14" width="33.6" height="33.6" stroke="black" stroke-width="1.26" stroke-dasharray="2.52 2.52"/>
<rect x="294" y="217.14" width="33.6" height="33.6" stroke="black" stroke-width="1.26" stroke-dasharray="2.52 2.52"/>
<rect x="327.6" y="217.14" width="33.6" height="33.6" stroke="black" stroke-width="1.26" stroke-dasharray="2.52 2.52"/>
<rect x="361.2" y="217.14" width="33.6" height="33.6" stroke="black" stroke-width="1.26" stroke-dasharray="2.52 2.52"/>
<rect x="394.8" y="217.14" width="33.6" height="33.6" stroke="black" stroke-width="1.26" stroke-dasharray="2.52 2.52"/>
<rect x="26.88" y="49.98" width="367.08" height="200.34" fill="#EFE9D9"/>
<rect x="37.38" y="60.48" width="5.88" height="5.88" fill="black"/>
<circle cx="50.82" cy="63.42" r="2.94" fill="black"/>
<path d="M60.69 60.48L63.7817 65.835H57.5983L60.69 60.48Z" fill="black"/>
<rect x="372.12" y="60.48" width="11.34" height="1.26" fill="black"/>
<rect x="372.12" y="63" width="11.34" height="1.26" fill="black"/>
<rect x="372.12" y="65.52" width="11.34" height="1.26" fill="black"/>
<rect x="303.45" y="106.47" width="68.46" height="68.46" stroke="black" stroke-width="0.42"/>
<path d="M371.91 106.47L303.45 174.93" stroke="black" stroke-width="0.42" stroke-dasharray="0.84 0.84"/>
<path d="M303.45 106.47L371.91 174.93" stroke="black" stroke-width="0.42" stroke-dasharray="0.84 0.84"/>
<rect x="183.96" y="63" width="141.12" height="202.86" fill="#2F69A9"/>
<path d="M183.96 106.26L307.02 119.07V266.07H183.96V106.26Z" fill="#D3561A"/>
<path d="M300.3 148.26L325.08 150.36V265.86H300.3V148.26Z" fill="#E2BF12"/>
<path d="M233.1 174.09L300.3 148.26V265.86H233.1V174.09Z" fill="#422E00"/>
<path d="M48.3 136.92V171.99" stroke="black" stroke-width="0.42"/>
<path d="M200.34 136.92V171.99" stroke="black" stroke-width="0.42"/>
<path d="M48.3 136.92H200.97" stroke="black" stroke-width="0.42"/>
<path d="M47.88 171.78H200.55" stroke="black" stroke-width="0.42"/>
<circle cx="48.09" cy="136.71" r="1.89" fill="white" stroke="black" stroke-width="0.84"/>
<circle cx="48.09" cy="171.99" r="1.89" fill="white" stroke="black" stroke-width="0.84"/>
<circle cx="200.55" cy="136.71" r="1.89" fill="white" stroke="black" stroke-width="0.84"/>
<circle cx="200.55" cy="171.99" r="1.89" fill="white" stroke="black" stroke-width="0.84"/>
<rect x="50.8199" y="139.02" width="147" height="30.24" fill="black"/>
<path d="M325.446 94.792L329.856 98.9923L328.428 100.459L324.018 96.2603L322.388 99.4204L318.895 89.9686L328.577 93.0614L325.446 94.792Z" fill="black"/>
<path d="M54.8793 125.7L54.1133 125.355L53.5802 126.54H54.8793V125.7ZM63.7434 106.002V105.162H63.2003L62.9774 105.657L63.7434 106.002ZM67.3453 106.002L68.1109 105.656L67.8878 105.162H67.3453V106.002ZM76.2376 125.7V126.54H77.5384L77.0032 125.354L76.2376 125.7ZM72.4105 125.7L71.6387 126.031L71.8571 126.54H72.4105V125.7ZM64.7846 107.944V107.104H63.5096L64.0128 108.275L64.7846 107.944ZM66.2479 107.944L67.0202 108.274L67.521 107.104H66.2479V107.944ZM58.6501 125.7V126.54H59.2043L59.4224 126.03L58.6501 125.7ZM58.9596 121.141L58.1651 120.869L57.7833 121.981H58.9596V121.141ZM59.9445 118.271V117.431H59.3447L59.15 117.998L59.9445 118.271ZM70.5814 118.271L71.376 117.998L71.1813 117.431H70.5814V118.271ZM71.5663 121.141V121.981H72.7427L72.3609 120.869L71.5663 121.141ZM55.6453 126.045L64.5094 106.347L62.9774 105.657L54.1133 125.355L55.6453 126.045ZM63.7434 106.842H67.3453V105.162H63.7434V106.842ZM66.5797 106.348L75.472 126.046L77.0032 125.354L68.1109 105.656L66.5797 106.348ZM76.2376 124.86H72.4105V126.54H76.2376V124.86ZM73.1824 125.369L65.5564 107.612L64.0128 108.275L71.6387 126.031L73.1824 125.369ZM64.7846 108.784H66.2479V107.104H64.7846V108.784ZM65.4756 107.613L57.8778 125.37L59.4224 126.03L67.0202 108.274L65.4756 107.613ZM58.6501 124.86H54.8793V126.54H58.6501V124.86ZM59.7541 121.414L60.739 118.544L59.15 117.998L58.1651 120.869L59.7541 121.414ZM59.9445 119.111H70.5814V117.431H59.9445V119.111ZM69.7869 118.544L70.7718 121.414L72.3609 120.869L71.376 117.998L69.7869 118.544ZM71.5663 120.301H58.9596V121.981H71.5663V120.301ZM79.0241 125.7H78.1841V126.54H79.0241V125.7ZM79.0241 106.002V105.162H78.1841V106.002H79.0241ZM93.6569 107.409L93.1496 108.079L93.1562 108.083L93.6569 107.409ZM94.7825 113.825L95.4815 114.291L95.4868 114.283L94.7825 113.825ZM92.8127 115.541L93.1813 116.296L93.1884 116.293L92.8127 115.541ZM90.1675 116.132L89.4162 115.757L88.8084 116.972H90.1675V116.132ZM90.6741 115.119V114.279H90.1549L89.9227 114.744L90.6741 115.119ZM93.6569 115.738L93.3008 116.499L93.3075 116.502L93.3142 116.505L93.6569 115.738ZM95.7393 117.483L95.0376 117.945L95.0456 117.957L95.7393 117.483ZM82.6823 122.83H81.8423V123.67H82.6823V122.83ZM91.7434 122.154L91.3031 121.439L91.7434 122.154ZM91.7434 117.849L91.2901 118.556L91.2966 118.56L91.3031 118.564L91.7434 117.849ZM82.4009 117.145H81.5609V117.985H82.4009V117.145ZM82.4009 114.303V113.463H81.5609V114.303H82.4009ZM90.7866 113.628L90.3295 112.923L90.3207 112.929L90.7866 113.628ZM90.7866 109.548L90.3206 110.247L90.3295 110.252L90.7866 109.548ZM82.6823 108.872V108.032H81.8423V108.872H82.6823ZM79.8641 125.7V106.002H78.1841V125.7H79.8641ZM79.0241 106.842H88.254V105.162H79.0241V106.842ZM88.254 106.842C90.5251 106.842 92.116 107.296 93.1497 108.079L94.1641 106.739C92.7214 105.646 90.7105 105.162 88.254 105.162V106.842ZM93.1562 108.083C94.1785 108.842 94.6741 109.829 94.6741 111.123H96.3541C96.3541 109.304 95.6117 107.814 94.1576 106.735L93.1562 108.083ZM94.6741 111.123C94.6741 112.04 94.4629 112.775 94.0782 113.367L95.4868 114.283C96.0776 113.374 96.3541 112.308 96.3541 111.123H94.6741ZM94.0836 113.359C93.681 113.963 93.1385 114.439 92.437 114.79L93.1884 116.293C94.1378 115.818 94.9085 115.15 95.4814 114.291L94.0836 113.359ZM92.4441 114.787C91.7597 115.121 91.0051 115.292 90.1675 115.292V116.972C91.2435 116.972 92.2524 116.75 93.1813 116.296L92.4441 114.787ZM90.9189 116.508L91.4254 115.495L89.9227 114.744L89.4162 115.757L90.9189 116.508ZM90.6741 115.959C91.6747 115.959 92.5449 116.145 93.3008 116.499L94.013 114.978C93.0055 114.506 91.8871 114.279 90.6741 114.279V115.959ZM93.3142 116.505C94.0572 116.837 94.6237 117.316 95.0377 117.945L96.4408 117.021C95.8418 116.112 95.0201 115.427 93.9996 114.972L93.3142 116.505ZM95.0456 117.957C95.4557 118.557 95.6872 119.339 95.6872 120.353H97.3672C97.3672 119.079 97.0734 117.947 96.4329 117.009L95.0456 117.957ZM95.6872 120.353C95.6872 121.79 95.155 122.843 94.0926 123.613L95.0784 124.973C96.6049 123.867 97.3672 122.293 97.3672 120.353H95.6872ZM94.0926 123.613C93.0042 124.402 91.2886 124.86 88.8168 124.86V126.54C91.4478 126.54 93.578 126.06 95.0784 124.973L94.0926 123.613ZM88.8168 124.86H79.0241V126.54H88.8168V124.86ZM82.6823 123.67H88.5917V121.99H82.6823V123.67ZM88.5917 123.67C90.0327 123.67 91.2628 123.436 92.1836 122.87L91.3031 121.439C90.7607 121.773 89.8896 121.99 88.5917 121.99V123.67ZM92.1836 122.87C93.2066 122.24 93.6808 121.219 93.6808 119.988H92.0008C92.0008 120.744 91.7435 121.168 91.3031 121.439L92.1836 122.87ZM93.6808 119.988C93.6808 118.767 93.2012 117.76 92.1836 117.134L91.3031 118.564C91.7489 118.839 92.0008 119.257 92.0008 119.988H93.6808ZM92.1967 117.142C91.2727 116.549 90.0371 116.305 88.5917 116.305V117.985C89.8853 117.985 90.7508 118.21 91.2901 118.556L92.1967 117.142ZM88.5917 116.305H82.4009V117.985H88.5917V116.305ZM83.2409 117.145V114.303H81.5609V117.145H83.2409ZM82.4009 115.143H87.8601V113.463H82.4009V115.143ZM87.8601 115.143C89.2143 115.143 90.3811 114.908 91.2526 114.327L90.3207 112.929C89.8414 113.249 89.0572 113.463 87.8601 113.463V115.143ZM91.2437 114.333C92.2007 113.712 92.6678 112.757 92.6678 111.602H90.9878C90.9878 112.248 90.7608 112.643 90.3295 112.923L91.2437 114.333ZM92.6678 111.602C92.6678 110.435 92.2064 109.467 91.2437 108.843L90.3295 110.252C90.7551 110.528 90.9878 110.93 90.9878 111.602H92.6678ZM91.2526 108.849C90.3811 108.268 89.2143 108.032 87.8601 108.032V109.712C89.0572 109.712 89.8414 109.927 90.3207 110.247L91.2526 108.849ZM87.8601 108.032H82.6823V109.712H87.8601V108.032ZM81.8423 108.872V122.83H83.5223V108.872H81.8423ZM105.694 125.222L106 124.439L105.694 125.222ZM102.317 123.111L101.735 123.717L101.741 123.723L102.317 123.111ZM100.094 119.903L99.3204 120.231L99.3222 120.235L100.094 119.903ZM100.094 111.827L100.865 112.159L100.867 112.155L100.094 111.827ZM102.317 108.619L102.893 109.231L102.899 109.225L102.317 108.619ZM105.694 106.48L106 107.263L105.694 106.48ZM114.136 106.48L113.826 107.261L113.829 107.263L114.136 106.48ZM117.512 108.619L116.93 109.225L116.937 109.231L117.512 108.619ZM119.735 111.827L118.962 112.155L118.964 112.159L119.735 111.827ZM119.735 119.903L118.962 119.575L119.735 119.903ZM117.512 123.111L116.937 122.499L117.512 123.111ZM114.136 125.222L113.829 124.439L113.826 124.441L114.136 125.222ZM112.672 122.267L112.984 123.047L112.672 122.267ZM114.867 120.832L115.461 121.426L115.47 121.417L114.867 120.832ZM116.302 118.637L115.528 118.31L115.525 118.319L116.302 118.637ZM116.302 113.093L115.522 113.405L115.527 113.416L115.531 113.426L116.302 113.093ZM114.867 110.898L114.264 111.483L114.273 111.492L114.867 110.898ZM112.672 109.435L112.984 108.655L112.672 109.435ZM107.157 109.435L106.845 108.655L106.839 108.658L107.157 109.435ZM104.962 110.898L104.368 110.304V110.304L104.962 110.898ZM103.499 113.093L102.725 112.767L102.721 112.775L103.499 113.093ZM103.499 118.609L102.719 118.921L102.722 118.928L102.725 118.935L103.499 118.609ZM104.962 120.832L104.359 121.417L104.368 121.426L104.962 120.832ZM107.157 122.267L107.469 121.487L107.157 122.267ZM109.943 125.141C108.498 125.141 107.187 124.904 106 124.439L105.387 126.004C106.789 126.552 108.311 126.821 109.943 126.821V125.141ZM106 124.439C104.799 123.97 103.767 123.322 102.892 122.499L101.741 123.723C102.78 124.701 103.999 125.461 105.387 126.004L106 124.439ZM102.899 122.505C102.023 121.664 101.346 120.687 100.865 119.571L99.3222 120.235C99.8918 121.558 100.697 122.72 101.735 123.717L102.899 122.505ZM100.867 119.575C100.389 118.45 100.146 117.212 100.146 115.851H98.4658C98.4658 117.417 98.7474 118.88 99.3204 120.231L100.867 119.575ZM100.146 115.851C100.146 114.49 100.39 113.263 100.865 112.159L99.3222 111.495C98.7473 112.829 98.4658 114.285 98.4658 115.851H100.146ZM100.867 112.155C101.348 111.022 102.023 110.049 102.892 109.231L101.741 108.007C100.697 108.99 99.8901 110.156 99.3204 111.499L100.867 112.155ZM102.899 109.225C103.772 108.386 104.803 107.731 106 107.263L105.387 105.698C103.995 106.243 102.775 107.014 101.735 108.013L102.899 109.225ZM106 107.263C107.188 106.798 108.49 106.561 109.915 106.561V104.881C108.3 104.881 106.788 105.15 105.387 105.698L106 107.263ZM109.915 106.561C111.36 106.561 112.66 106.798 113.826 107.261L114.446 105.7C113.06 105.15 111.546 104.881 109.915 104.881V106.561ZM113.829 107.263C115.026 107.731 116.057 108.386 116.93 109.225L118.094 108.013C117.054 107.014 115.834 106.243 114.442 105.698L113.829 107.263ZM116.937 109.231C117.807 110.049 118.481 111.022 118.962 112.155L120.509 111.499C119.939 110.156 119.132 108.99 118.088 108.007L116.937 109.231ZM118.964 112.159C119.44 113.263 119.683 114.49 119.683 115.851H121.363C121.363 114.285 121.082 112.829 120.507 111.495L118.964 112.159ZM119.683 115.851C119.683 117.212 119.44 118.45 118.962 119.575L120.509 120.231C121.082 118.88 121.363 117.417 121.363 115.851H119.683ZM118.962 119.575C118.481 120.709 117.807 121.681 116.937 122.499L118.088 123.723C119.132 122.741 119.939 121.574 120.509 120.231L118.962 119.575ZM116.937 122.499C116.063 123.322 115.03 123.97 113.829 124.439L114.442 126.004C115.83 125.461 117.049 124.701 118.088 123.723L116.937 122.499ZM113.826 124.441C112.659 124.904 111.367 125.141 109.943 125.141V126.821C111.557 126.821 113.061 126.552 114.446 126.002L113.826 124.441ZM109.915 123.613C111.006 123.613 112.032 123.428 112.984 123.047L112.36 121.487C111.624 121.781 110.812 121.933 109.915 121.933V123.613ZM112.984 123.047C113.93 122.669 114.759 122.128 115.461 121.426L114.273 120.238C113.738 120.773 113.103 121.19 112.36 121.487L112.984 123.047ZM115.47 121.417C116.164 120.702 116.702 119.879 117.08 118.955L115.525 118.319C115.228 119.045 114.809 119.686 114.264 120.247L115.47 121.417ZM117.076 118.964C117.481 118.006 117.677 116.964 117.677 115.851H115.997C115.997 116.764 115.837 117.58 115.528 118.31L117.076 118.964ZM117.677 115.851C117.677 114.738 117.481 113.703 117.074 112.76L115.531 113.426C115.837 114.134 115.997 114.938 115.997 115.851H117.677ZM117.082 112.781C116.704 111.836 116.164 111.007 115.461 110.304L114.273 111.492C114.809 112.028 115.225 112.663 115.522 113.405L117.082 112.781ZM115.47 110.313C114.767 109.589 113.935 109.036 112.984 108.655L112.36 110.215C113.098 110.51 113.729 110.932 114.264 111.483L115.47 110.313ZM112.984 108.655C112.032 108.274 111.006 108.089 109.915 108.089V109.769C110.812 109.769 111.624 109.921 112.36 110.215L112.984 108.655ZM109.915 108.089C108.823 108.089 107.797 108.274 106.845 108.655L107.469 110.215C108.205 109.921 109.017 109.769 109.915 109.769V108.089ZM106.839 108.658C105.909 109.038 105.084 109.589 104.368 110.304L105.556 111.492C106.116 110.932 106.754 110.508 107.475 110.213L106.839 108.658ZM104.368 110.304C103.669 111.004 103.121 111.827 102.725 112.767L104.272 113.42C104.589 112.671 105.017 112.031 105.556 111.492L104.368 110.304ZM102.721 112.775C102.337 113.714 102.152 114.744 102.152 115.851H103.832C103.832 114.932 103.985 114.123 104.276 113.411L102.721 112.775ZM102.152 115.851C102.152 116.942 102.338 117.968 102.719 118.921L104.279 118.297C103.984 117.561 103.832 116.748 103.832 115.851H102.152ZM102.725 118.935C103.12 119.873 103.665 120.702 104.359 121.417L105.565 120.247C105.02 119.686 104.59 119.033 104.272 118.282L102.725 118.935ZM104.368 121.426C105.071 122.128 105.899 122.669 106.845 123.047L107.469 121.487C106.726 121.19 106.091 120.773 105.556 120.238L104.368 121.426ZM106.845 123.047C107.797 123.428 108.823 123.613 109.915 123.613V121.933C109.017 121.933 108.205 121.781 107.469 121.487L106.845 123.047ZM126.793 123.702L126.199 124.296L126.203 124.3L126.793 123.702ZM124.514 106.002V105.162H123.674V106.002H124.514ZM128.172 106.002H129.012V105.162H128.172V106.002ZM129.466 121.395L128.854 121.97L128.86 121.976L129.466 121.395ZM136.867 121.395L136.255 120.82L136.867 121.395ZM138.161 106.002V105.162H137.321V106.002H138.161ZM141.763 106.002H142.603V105.162H141.763V106.002ZM139.456 123.702L138.866 123.104L138.862 123.108L139.456 123.702ZM133.152 125.141C130.614 125.141 128.727 124.432 127.383 123.104L126.203 124.3C127.935 126.011 130.288 126.821 133.152 126.821V125.141ZM127.387 123.108C126.072 121.793 125.354 119.842 125.354 117.117H123.674C123.674 120.133 124.475 122.572 126.199 124.296L127.387 123.108ZM125.354 117.117V106.002H123.674V117.117H125.354ZM124.514 106.842H128.172V105.162H124.514V106.842ZM127.332 106.002V116.977H129.012V106.002H127.332ZM127.332 116.977C127.332 119.093 127.778 120.823 128.854 121.97L130.079 120.82C129.429 120.127 129.012 118.912 129.012 116.977H127.332ZM128.86 121.976C129.938 123.1 131.418 123.613 133.181 123.613V121.933C131.754 121.933 130.758 121.528 130.072 120.813L128.86 121.976ZM133.181 123.613C134.942 123.613 136.418 123.1 137.479 121.97L136.255 120.82C135.59 121.527 134.609 121.933 133.181 121.933V123.613ZM137.479 121.97C138.555 120.823 139.001 119.093 139.001 116.977H137.321C137.321 118.912 136.904 120.127 136.255 120.82L137.479 121.97ZM139.001 116.977V106.002H137.321V116.977H139.001ZM138.161 106.842H141.763V105.162H138.161V106.842ZM140.923 106.002V117.117H142.603V106.002H140.923ZM140.923 117.117C140.923 119.839 140.197 121.789 138.866 123.104L140.046 124.3C141.791 122.576 142.603 120.136 142.603 117.117H140.923ZM138.862 123.108C137.537 124.433 135.671 125.141 133.152 125.141V126.821C135.999 126.821 138.336 126.01 140.05 124.296L138.862 123.108ZM150.807 125.7H149.967V126.54H150.807V125.7ZM150.807 109.097H151.647V108.257H150.807V109.097ZM144.278 109.097H143.438V109.937H144.278V109.097ZM144.278 106.002V105.162H143.438V106.002H144.278ZM160.993 106.002H161.833V105.162H160.993V106.002ZM160.993 109.097V109.937H161.833V109.097H160.993ZM154.465 109.097V108.257H153.625V109.097H154.465ZM154.465 125.7V126.54H155.305V125.7H154.465ZM151.647 125.7V109.097H149.967V125.7H151.647ZM150.807 108.257H144.278V109.937H150.807V108.257ZM145.118 109.097V106.002H143.438V109.097H145.118ZM144.278 106.842H160.993V105.162H144.278V106.842ZM160.153 106.002V109.097H161.833V106.002H160.153ZM160.993 108.257H154.465V109.937H160.993V108.257ZM153.625 109.097V125.7H155.305V109.097H153.625ZM154.465 124.86H150.807V126.54H154.465V124.86Z" fill="black"/>
<path d="M58.6236 165.5V144.92H67.62C69.8544 144.92 71.8144 145.351 73.5 146.214C75.1856 147.076 76.4988 148.272 77.4396 149.8C78.3804 151.329 78.8508 153.132 78.8508 155.21C78.8508 157.268 78.3804 159.071 77.4396 160.62C76.4988 162.148 75.1856 163.344 73.5 164.206C71.8144 165.069 69.8544 165.5 67.62 165.5H58.6236ZM62.4456 162.266H67.4436C68.992 162.266 70.3248 161.972 71.442 161.384C72.5788 160.796 73.451 159.973 74.0586 158.914C74.6858 157.856 74.9994 156.621 74.9994 155.21C74.9994 153.779 74.6858 152.544 74.0586 151.506C73.451 150.447 72.5788 149.624 71.442 149.036C70.3248 148.448 68.992 148.154 67.4436 148.154H62.4456V162.266ZM86.735 153.475H96.9662V156.621H86.735V153.475ZM87.029 162.295H98.642V165.5H83.207V144.92H98.2304V148.125H87.029V162.295ZM109.577 165.794C107.969 165.794 106.431 165.569 104.961 165.118C103.491 164.647 102.325 164.05 101.462 163.324L102.785 160.355C103.608 161.002 104.628 161.541 105.843 161.972C107.058 162.403 108.303 162.619 109.577 162.619C110.655 162.619 111.527 162.501 112.193 162.266C112.86 162.031 113.35 161.717 113.663 161.325C113.977 160.914 114.134 160.453 114.134 159.943C114.134 159.316 113.908 158.816 113.457 158.444C113.007 158.052 112.419 157.748 111.693 157.533C110.988 157.297 110.194 157.082 109.312 156.886C108.45 156.69 107.577 156.464 106.695 156.21C105.833 155.935 105.039 155.592 104.314 155.181C103.608 154.749 103.03 154.181 102.579 153.475C102.129 152.77 101.903 151.868 101.903 150.771C101.903 149.653 102.197 148.634 102.785 147.713C103.393 146.772 104.304 146.027 105.519 145.479C106.754 144.91 108.312 144.626 110.194 144.626C111.429 144.626 112.654 144.783 113.869 145.096C115.084 145.41 116.143 145.861 117.044 146.449L115.839 149.418C114.918 148.869 113.967 148.468 112.987 148.213C112.007 147.938 111.066 147.801 110.165 147.801C109.106 147.801 108.244 147.929 107.577 148.183C106.931 148.438 106.45 148.771 106.137 149.183C105.843 149.595 105.696 150.065 105.696 150.594C105.696 151.221 105.911 151.731 106.343 152.123C106.793 152.495 107.372 152.789 108.077 153.005C108.802 153.221 109.606 153.436 110.488 153.652C111.37 153.848 112.242 154.073 113.105 154.328C113.987 154.583 114.78 154.916 115.486 155.328C116.211 155.739 116.789 156.298 117.221 157.003C117.671 157.709 117.897 158.601 117.897 159.679C117.897 160.776 117.593 161.796 116.985 162.736C116.397 163.658 115.486 164.402 114.251 164.971C113.016 165.52 111.458 165.794 109.577 165.794ZM121.981 165.5V144.92H125.803V165.5H121.981ZM141.277 165.794C139.67 165.794 138.19 165.539 136.837 165.03C135.505 164.5 134.338 163.765 133.339 162.825C132.339 161.864 131.565 160.737 131.016 159.444C130.467 158.15 130.193 156.739 130.193 155.21C130.193 153.681 130.467 152.27 131.016 150.976C131.565 149.683 132.339 148.566 133.339 147.625C134.358 146.664 135.544 145.929 136.896 145.42C138.249 144.891 139.728 144.626 141.336 144.626C143.08 144.626 144.648 144.91 146.04 145.479C147.451 146.047 148.637 146.88 149.597 147.978L147.186 150.33C146.383 149.526 145.51 148.938 144.57 148.566C143.648 148.174 142.629 147.978 141.512 147.978C140.434 147.978 139.434 148.154 138.513 148.507C137.592 148.86 136.798 149.359 136.132 150.006C135.465 150.653 134.946 151.417 134.574 152.299C134.221 153.181 134.044 154.152 134.044 155.21C134.044 156.249 134.221 157.209 134.574 158.091C134.946 158.973 135.465 159.747 136.132 160.414C136.798 161.061 137.582 161.56 138.484 161.913C139.385 162.266 140.385 162.442 141.483 162.442C142.502 162.442 143.482 162.286 144.423 161.972C145.383 161.639 146.294 161.09 147.157 160.326L149.332 163.177C148.254 164.04 147 164.696 145.569 165.147C144.158 165.578 142.727 165.794 141.277 165.794ZM145.716 162.678V154.975H149.332V163.177L145.716 162.678ZM154.667 165.5V144.92H157.813L170.72 160.767H169.162V144.92H172.954V165.5H169.808L156.902 149.653H158.46V165.5H154.667ZM185.143 165.794C183.535 165.794 181.997 165.569 180.527 165.118C179.057 164.647 177.891 164.05 177.028 163.324L178.351 160.355C179.174 161.002 180.194 161.541 181.409 161.972C182.624 162.403 183.869 162.619 185.143 162.619C186.221 162.619 187.093 162.501 187.759 162.266C188.426 162.031 188.916 161.717 189.229 161.325C189.543 160.914 189.7 160.453 189.7 159.943C189.7 159.316 189.474 158.816 189.023 158.444C188.573 158.052 187.985 157.748 187.259 157.533C186.554 157.297 185.76 157.082 184.878 156.886C184.016 156.69 183.143 156.464 182.261 156.21C181.399 155.935 180.605 155.592 179.88 155.181C179.174 154.749 178.596 154.181 178.145 153.475C177.695 152.77 177.469 151.868 177.469 150.771C177.469 149.653 177.763 148.634 178.351 147.713C178.959 146.772 179.87 146.027 181.085 145.479C182.32 144.91 183.878 144.626 185.76 144.626C186.995 144.626 188.22 144.783 189.435 145.096C190.65 145.41 191.709 145.861 192.61 146.449L191.405 149.418C190.484 148.869 189.533 148.468 188.553 148.213C187.573 147.938 186.632 147.801 185.731 147.801C184.672 147.801 183.81 147.929 183.143 148.183C182.497 148.438 182.016 148.771 181.703 149.183C181.409 149.595 181.262 150.065 181.262 150.594C181.262 151.221 181.477 151.731 181.909 152.123C182.359 152.495 182.938 152.789 183.643 153.005C184.368 153.221 185.172 153.436 186.054 153.652C186.936 153.848 187.808 154.073 188.671 154.328C189.553 154.583 190.346 154.916 191.052 155.328C191.777 155.739 192.355 156.298 192.787 157.003C193.237 157.709 193.463 158.601 193.463 159.679C193.463 160.776 193.159 161.796 192.551 162.736C191.963 163.658 191.052 164.402 189.817 164.971C188.582 165.52 187.024 165.794 185.143 165.794Z" fill="white"/>
<path d="M193.2 15.54H141.33" stroke="black" stroke-width="1.26" stroke-dasharray="2.52 2.52"/>
<path d="M394.8 302.61L394.8 250.74" stroke="black" stroke-width="1.26" stroke-dasharray="2.52 2.52"/>
<path d="M361.2 302.61L361.2 250.74" stroke="black" stroke-width="1.26" stroke-dasharray="2.52 2.52"/>
<path d="M327.6 302.61L327.6 250.74" stroke="black" stroke-width="1.26" stroke-dasharray="2.52 2.52"/>
<circle cx="67.2" cy="250.32" r="13.44" fill="#FCEFC1"/>
<circle cx="101.64" cy="250.32" r="13.44" fill="#FFCE02"/>
<circle cx="136.08" cy="250.32" r="13.44" fill="#166AEB"/>
<path d="M2.39696 83.703C2.23294 83.539 1.96701 83.539 1.80299 83.703L-0.869873 86.3759C-1.03389 86.5399 -1.03389 86.8058 -0.869873 86.9698C-0.705853 87.1339 -0.439924 87.1339 -0.275903 86.9698L2.09998 84.594L4.47585 86.9698C4.63987 87.1339 4.9058 87.1339 5.06982 86.9698C5.23384 86.8058 5.23384 86.5399 5.06982 86.3759L2.39696 83.703ZM1.80299 215.967C1.96701 216.131 2.23294 216.131 2.39696 215.967L5.06982 213.294C5.23384 213.13 5.23384 212.864 5.06982 212.7C4.9058 212.536 4.63987 212.536 4.47585 212.7L2.09998 215.076L-0.275903 212.7C-0.439924 212.536 -0.705853 212.536 -0.869873 212.7C-1.03389 212.864 -1.03389 213.13 -0.869873 213.294L1.80299 215.967ZM1.67998 84V215.67H2.51998V84H1.67998Z" fill="black"/>
</g>
<defs>
<clipPath id="clip0_1_1141">
<rect width="420.42" height="300.3" fill="white"/>
</clipPath>
</defs>
</svg>
