<svg width="95" height="95" viewBox="0 0 95 95" fill="none" xmlns="http://www.w3.org/2000/svg">
<g id="devicon:c">
<path id="Vector" d="M85.6484 22.7852L49.8008 2.15234C49.207 1.78125 48.3906 1.63281 47.5 1.63281C46.6094 1.63281 45.793 1.85547 45.1992 2.15234L9.57422 22.8594C8.3125 23.6016 7.42188 25.457 7.42188 26.8672V68.207C7.42188 69.0234 7.57031 69.9883 8.16406 70.8047L87.4297 24.7891C86.9844 23.8984 86.3164 23.2305 85.6484 22.7852Z" fill="#659AD3"/>
<path id="Vector_2" d="M7.94141 70.7305C8.3125 71.3242 8.83203 71.8438 9.35156 72.1406L45.125 92.8477C45.7187 93.2188 46.5352 93.3672 47.4258 93.3672C48.3164 93.3672 49.1328 93.1445 49.7266 92.8477L85.3516 72.1406C86.6133 71.3984 87.5039 69.543 87.5039 68.1328V26.793C87.5039 26.125 87.4297 25.3828 87.0586 24.7148L7.94141 70.7305Z" fill="#03599C"/>
<path id="Vector_3" d="M63.3086 56.4805C60.1914 61.9727 54.2539 65.6836 47.5 65.6836C37.4805 65.6836 29.3164 57.5195 29.3164 47.5C29.3164 37.4805 37.4805 29.3164 47.5 29.3164C54.2539 29.3164 60.1914 33.0273 63.3086 38.5938L72.957 33.0273C67.9102 24.1953 58.4102 18.1836 47.5 18.1836C31.3203 18.1836 18.1836 31.3203 18.1836 47.5C18.1836 63.6797 31.3203 76.8164 47.5 76.8164C58.3359 76.8164 67.8359 70.8789 72.8828 62.1211L63.3086 56.4805Z" fill="white"/>
</g>
</svg>
