<svg width="94" height="95" viewBox="0 0 94 95" fill="none" xmlns="http://www.w3.org/2000/svg">
<g id="devicon:html5">
<path id="Vector" d="M13.9803 84.5173L6.63287 1.23277H87.3671L80.0116 84.5047L46.9508 93.7672L13.9803 84.5173Z" fill="#E44D26"/>
<path id="Vector_2" d="M47 86.6875L73.7151 79.2018L80.0006 8.04234H47V86.6875Z" fill="#F16529"/>
<path id="Vector_3" d="M47 38.9314H33.6256L32.7017 28.471H47V18.2571H21.656L21.8983 20.9972L24.382 49.1462H47V38.9314ZM47 65.4594L46.9552 65.4721L35.6994 62.3994L34.9805 54.2539H24.8336L26.2495 70.2918L46.9537 76.1002L47 76.0876V65.4594Z" fill="#EBEBEB"/>
<path id="Vector_4" d="M46.9648 38.9314V49.1462H59.4102L58.2374 62.3935L46.9648 65.4684V76.0957L67.6851 70.2918L67.8372 68.5662L70.2121 41.6746L70.4581 38.9314H67.7351H46.9648ZM46.9648 18.2571V28.471H71.3783L71.581 26.1762L72.0422 20.9972L72.2838 18.2571H46.9648Z" fill="white"/>
</g>
</svg>
