<svg width="24" height="9" viewBox="0 0 24 9" fill="none" xmlns="http://www.w3.org/2000/svg">
<path d="M0.133125 3.21887V0.324809H2.445V0.839497H0.765938V1.48497H2.25094V1.99543H0.765938V2.69997H2.47031V3.21887H0.133125ZM4.35026 3.2695C4.04932 3.2695 3.79198 3.21747 3.57823 3.1134C3.36448 3.00653 3.20135 2.842 3.08885 2.61981C2.97917 2.39762 2.92432 2.11497 2.92432 1.77184C2.92432 1.26559 3.04807 0.890122 3.29557 0.645435C3.54589 0.397935 3.89745 0.274185 4.35026 0.274185C4.59776 0.274185 4.81995 0.316372 5.01682 0.400747C5.2137 0.485122 5.36838 0.611685 5.48089 0.780435C5.5962 0.949185 5.65385 1.16153 5.65385 1.41747H5.02104C5.02104 1.28247 4.99292 1.16856 4.93667 1.07575C4.88323 0.982935 4.80589 0.912622 4.70463 0.864809C4.6062 0.814184 4.49089 0.788872 4.3587 0.788872C4.1787 0.788872 4.02964 0.824028 3.91151 0.894341C3.7962 0.964653 3.71042 1.06872 3.65417 1.20653C3.60073 1.34153 3.57401 1.50747 3.57401 1.70434V1.83512C3.57401 2.03762 3.60214 2.20778 3.65839 2.34559C3.71463 2.48059 3.79901 2.58325 3.91151 2.65356C4.02682 2.72106 4.17448 2.75481 4.35448 2.75481C4.4951 2.75481 4.61745 2.7309 4.72151 2.68309C4.82557 2.63528 4.90573 2.56497 4.96198 2.47215C5.01823 2.37934 5.04635 2.26543 5.04635 2.13043H5.65385C5.65385 2.38637 5.5976 2.59872 5.4851 2.76747C5.37542 2.93622 5.22214 3.06278 5.02526 3.14715C4.82839 3.22872 4.60339 3.2695 4.35026 3.2695ZM7.54132 3.2695C7.23475 3.2695 6.97038 3.21465 6.74819 3.10497C6.526 2.99528 6.35585 2.82934 6.23772 2.60715C6.1196 2.38497 6.06053 2.10653 6.06053 1.77184C6.06053 1.43153 6.1196 1.15168 6.23772 0.932309C6.35585 0.710122 6.526 0.545591 6.74819 0.438716C6.97038 0.329028 7.23475 0.274185 7.54132 0.274185C7.8535 0.274185 8.11928 0.329028 8.33866 0.438716C8.56085 0.545591 8.731 0.710122 8.84913 0.932309C8.96725 1.15168 9.02632 1.43153 9.02632 1.77184C9.02632 2.10653 8.96725 2.38497 8.84913 2.60715C8.731 2.82934 8.56085 2.99528 8.33866 3.10497C8.11928 3.21465 7.8535 3.2695 7.54132 3.2695ZM7.54132 2.75481C7.67913 2.75481 7.80007 2.73512 7.90413 2.69575C8.00819 2.65637 8.09538 2.59731 8.16569 2.51856C8.236 2.43981 8.28944 2.34418 8.326 2.23168C8.36257 2.11637 8.38085 1.98559 8.38085 1.83934V1.70856C8.38085 1.5595 8.36257 1.42731 8.326 1.312C8.28944 1.19668 8.236 1.10106 8.16569 1.02512C8.09538 0.946372 8.00819 0.887309 7.90413 0.847934C7.80007 0.808559 7.67913 0.788872 7.54132 0.788872C7.40632 0.788872 7.28678 0.808559 7.18272 0.847934C7.07866 0.887309 6.99147 0.946372 6.92116 1.02512C6.85085 1.10106 6.79741 1.19668 6.76085 1.312C6.7271 1.42731 6.71022 1.5595 6.71022 1.70856V1.83934C6.71022 1.98559 6.7271 2.11637 6.76085 2.23168C6.79741 2.34418 6.85085 2.43981 6.92116 2.51856C6.99147 2.59731 7.07866 2.65637 7.18272 2.69575C7.28678 2.73512 7.40632 2.75481 7.54132 2.75481ZM9.57884 3.21887V0.324809H10.2074V1.47231H11.4899V0.324809H12.1185V3.21887H11.4899V2.00387H10.2074V3.21887H9.57884ZM12.5063 3.21887L13.62 0.324809H14.3963L15.51 3.21887H14.8308L14.6241 2.64934H13.3627L13.1559 3.21887H12.5063ZM13.5441 2.14309H14.4427L14.1853 1.43012C14.1741 1.39918 14.16 1.36262 14.1431 1.32043C14.1291 1.27543 14.1136 1.22622 14.0967 1.17278C14.0799 1.11934 14.063 1.06731 14.0461 1.01668C14.032 0.963247 14.018 0.915434 14.0039 0.873247H13.9786C13.9645 0.926684 13.9463 0.989966 13.9238 1.06309C13.9013 1.1334 13.8788 1.20231 13.8563 1.26981C13.8338 1.3345 13.8155 1.38793 13.8014 1.43012L13.5441 2.14309ZM17.0878 3.2695C16.8234 3.2695 16.5956 3.22731 16.4043 3.14293C16.2159 3.05856 16.071 2.932 15.9698 2.76325C15.8685 2.59168 15.8179 2.37934 15.8179 2.12622V0.324809H16.4507V2.10934C16.4507 2.31747 16.5056 2.47778 16.6153 2.59028C16.7249 2.69997 16.8824 2.75481 17.0878 2.75481C17.2931 2.75481 17.4506 2.69997 17.5603 2.59028C17.6728 2.47778 17.729 2.31747 17.729 2.10934V0.324809H18.3618V2.12622C18.3618 2.37934 18.3112 2.59168 18.2099 2.76325C18.1087 2.932 17.9624 3.05856 17.7712 3.14293C17.5828 3.22731 17.3549 3.2695 17.0878 3.2695ZM0.133125 8.21887V5.32481H1.71938C1.93313 5.32481 2.11031 5.36278 2.25094 5.43872C2.39438 5.51465 2.50125 5.62153 2.57156 5.75934C2.64188 5.89434 2.67703 6.05043 2.67703 6.22762C2.67703 6.41606 2.63484 6.5834 2.55047 6.72965C2.46609 6.87309 2.34375 6.98278 2.18344 7.05872L2.77406 8.21887H2.07797L1.5675 7.16418H0.761719V8.21887H0.133125ZM0.761719 6.66637H1.635C1.76156 6.66637 1.86 6.6284 1.93031 6.55247C2.00063 6.47372 2.03578 6.36825 2.03578 6.23606C2.03578 6.15168 2.02031 6.07997 1.98938 6.0209C1.95844 5.95903 1.91344 5.91262 1.85438 5.88168C1.79531 5.85075 1.72219 5.83528 1.635 5.83528H0.761719V6.66637ZM3.25698 8.21887V5.32481H3.88557V8.21887H3.25698ZM5.34434 8.21887L4.29809 5.32481H4.9773L5.60168 7.17262C5.61293 7.20356 5.62559 7.24153 5.63965 7.28653C5.65371 7.32872 5.66777 7.3709 5.68184 7.41309C5.6959 7.45528 5.70715 7.49325 5.71559 7.527H5.7409C5.75215 7.49606 5.7634 7.4609 5.77465 7.42153C5.78871 7.37934 5.80137 7.33715 5.81262 7.29497C5.82668 7.25278 5.83934 7.2134 5.85059 7.17684L6.47496 5.32481H7.12887L6.0784 8.21887H5.34434ZM7.5395 8.21887V5.32481H9.85138V5.8395H8.17232V6.48497H9.65732V6.99543H8.17232V7.69997H9.87669V8.21887H7.5395ZM10.4615 8.21887V5.32481H12.0477C12.2615 5.32481 12.4387 5.36278 12.5793 5.43872C12.7227 5.51465 12.8296 5.62153 12.8999 5.75934C12.9702 5.89434 13.0054 6.05043 13.0054 6.22762C13.0054 6.41606 12.9632 6.5834 12.8788 6.72965C12.7945 6.87309 12.6721 6.98278 12.5118 7.05872L13.1024 8.21887H12.4063L11.8959 7.16418H11.0901V8.21887H10.4615ZM11.0901 6.66637H11.9634C12.0899 6.66637 12.1884 6.6284 12.2587 6.55247C12.329 6.47372 12.3641 6.36825 12.3641 6.23606C12.3641 6.15168 12.3487 6.07997 12.3177 6.0209C12.2868 5.95903 12.2418 5.91262 12.1827 5.88168C12.1237 5.85075 12.0505 5.83528 11.9634 5.83528H11.0901V6.66637ZM14.7117 8.2695C14.543 8.2695 14.3827 8.25262 14.2308 8.21887C14.0789 8.18512 13.9439 8.13168 13.8258 8.05856C13.7105 7.98262 13.6191 7.8884 13.5516 7.7759C13.4869 7.66059 13.4546 7.52137 13.4546 7.35825C13.4546 7.34418 13.4546 7.33012 13.4546 7.31606C13.4546 7.29918 13.456 7.28653 13.4588 7.27809H14.0831C14.0803 7.28653 14.0789 7.29778 14.0789 7.31184C14.0789 7.3259 14.0789 7.33856 14.0789 7.34981C14.0789 7.43981 14.1028 7.51575 14.1506 7.57762C14.2013 7.6395 14.2744 7.6859 14.37 7.71684C14.4656 7.74778 14.5767 7.76325 14.7033 7.76325C14.7849 7.76325 14.8566 7.75903 14.9185 7.75059C14.9831 7.73934 15.0394 7.72528 15.0872 7.7084C15.1378 7.68872 15.1786 7.66622 15.2096 7.6409C15.2433 7.61559 15.2672 7.58606 15.2813 7.55231C15.2981 7.51856 15.3066 7.48059 15.3066 7.4384C15.3066 7.36247 15.2813 7.30059 15.2306 7.25278C15.1828 7.20497 15.1153 7.16418 15.0281 7.13043C14.9438 7.09668 14.8481 7.06575 14.7413 7.03762C14.6344 7.0095 14.5247 6.98137 14.4122 6.95325C14.2997 6.92231 14.19 6.88575 14.0831 6.84356C13.9763 6.79856 13.8806 6.74512 13.7963 6.68325C13.7119 6.62137 13.6444 6.54262 13.5938 6.447C13.5431 6.35137 13.5178 6.23606 13.5178 6.10106C13.5178 5.95762 13.5474 5.83387 13.6064 5.72981C13.6683 5.62575 13.7541 5.53997 13.8638 5.47247C13.9735 5.40497 14.1 5.35575 14.2435 5.32481C14.3869 5.29106 14.543 5.27418 14.7117 5.27418C14.8692 5.27418 15.0183 5.29106 15.1589 5.32481C15.2996 5.35575 15.4233 5.40637 15.5302 5.47668C15.6371 5.547 15.72 5.63559 15.7791 5.74247C15.841 5.84934 15.8719 5.9759 15.8719 6.12215V6.17278H15.2602V6.13903C15.2602 6.06309 15.2377 5.9984 15.1927 5.94497C15.1477 5.89153 15.0844 5.84934 15.0028 5.8184C14.9213 5.78747 14.8256 5.772 14.716 5.772C14.5978 5.772 14.4966 5.78325 14.4122 5.80575C14.3306 5.82825 14.2674 5.862 14.2224 5.907C14.1802 5.94918 14.1591 5.99981 14.1591 6.05887C14.1591 6.12637 14.183 6.18262 14.2308 6.22762C14.2814 6.26981 14.3489 6.30778 14.4333 6.34153C14.5205 6.37247 14.6175 6.40059 14.7244 6.4259C14.8313 6.45122 14.941 6.47934 15.0535 6.51028C15.166 6.54122 15.2756 6.57778 15.3825 6.61997C15.4894 6.66215 15.585 6.71559 15.6694 6.78028C15.7538 6.84215 15.8213 6.9195 15.8719 7.01231C15.9225 7.10512 15.9478 7.21622 15.9478 7.34559C15.9478 7.56778 15.8944 7.74637 15.7875 7.88137C15.6806 8.01637 15.5344 8.11481 15.3488 8.17668C15.1631 8.23856 14.9508 8.2695 14.7117 8.2695ZM16.4908 8.21887V5.32481H17.1194V8.21887H16.4908ZM17.8019 8.21887V5.32481H18.9832C19.2841 5.32481 19.5401 5.37684 19.751 5.4809C19.9619 5.58497 20.1237 5.74387 20.2362 5.95762C20.3515 6.16856 20.4091 6.43997 20.4091 6.77184C20.4091 7.1009 20.3515 7.37231 20.2362 7.58606C20.1237 7.79981 19.9619 7.95872 19.751 8.06278C19.5401 8.16684 19.2841 8.21887 18.9832 8.21887H17.8019ZM18.4305 7.69997H18.979C19.1055 7.69997 19.218 7.68168 19.3165 7.64512C19.4149 7.60856 19.4965 7.55512 19.5612 7.48481C19.6258 7.41168 19.6751 7.32168 19.7088 7.21481C19.7426 7.10512 19.7594 6.97856 19.7594 6.83512V6.70856C19.7594 6.56512 19.7426 6.43997 19.7088 6.33309C19.6751 6.2234 19.6258 6.1334 19.5612 6.06309C19.4965 5.98997 19.4149 5.93512 19.3165 5.89856C19.218 5.85918 19.1055 5.8395 18.979 5.8395H18.4305V7.69997ZM20.9629 8.21887V5.32481H23.2747V5.8395H21.5957V6.48497H23.0807V6.99543H21.5957V7.69997H23.3001V8.21887H20.9629Z" fill="white"/>
</svg>
