<svg width="33" height="32" viewBox="0 0 33 32" fill="none" xmlns="http://www.w3.org/2000/svg">
<path d="M16.1254 20.6894C16.2901 20.8541 16.5572 20.8541 16.722 20.6894L19.4068 18.0046C19.5715 17.8398 19.5715 17.5727 19.4068 17.4079C19.242 17.2432 18.9749 17.2432 18.8102 17.4079L16.4237 19.7944L14.0372 17.4079C13.8725 17.2432 13.6053 17.2432 13.4406 17.4079C13.2758 17.5727 13.2758 17.8398 13.4406 18.0046L16.1254 20.6894ZM16.0018 11.9536L16.0018 20.3911L16.8456 20.3911L16.8456 11.9536L16.0018 11.9536Z" fill="white"/>
<path d="M30.1763 16.3617L32.0817 16.665L31.9725 17.3511C31.9401 17.5548 31.8793 17.7217 31.7903 17.8518C31.7028 17.9841 31.5827 18.076 31.4302 18.1277C31.2793 18.1815 31.0918 18.1906 30.8677 18.1549C30.6473 18.1198 30.4729 18.0531 30.3442 17.9548C30.2153 17.8584 30.1288 17.7335 30.0849 17.5803C30.0406 17.429 30.0347 17.2515 30.0671 17.0478L30.1763 16.3617ZM30.3302 16.6112L30.2573 17.0695C30.2393 17.1825 30.2361 17.2864 30.2475 17.3812C30.2609 17.4764 30.2911 17.5609 30.3382 17.6349C30.3871 17.7091 30.4552 17.7703 30.5425 17.8184C30.6298 17.8664 30.7392 17.9009 30.8706 17.9219L30.929 17.9311C31.0641 17.9527 31.1807 17.9541 31.2785 17.9355C31.3783 17.9172 31.462 17.8802 31.5297 17.8246C31.599 17.771 31.6538 17.701 31.6942 17.6144C31.7364 17.5281 31.7667 17.4275 31.7849 17.3127L31.8579 16.8544L30.3302 16.6112Z" fill="white"/>
<path d="M29.3377 20.6684L31.0915 21.4727L30.9989 21.6746L29.2451 20.8704L29.3377 20.6684Z" fill="white"/>
<path d="M27.6346 23.9118C27.7 23.832 27.7709 23.7605 27.8472 23.697C27.9236 23.6335 28.0029 23.5871 28.0853 23.5576C28.1677 23.5282 28.2508 23.52 28.3347 23.5331C28.4186 23.5461 28.5025 23.5872 28.5866 23.6561C28.5938 23.6621 28.6004 23.6674 28.6062 23.6722C28.6134 23.6781 28.6201 23.6848 28.6261 23.6922L28.4852 23.864C28.4794 23.8592 28.472 23.8519 28.463 23.8422C28.4529 23.8338 28.4442 23.8267 28.4369 23.8208C28.3732 23.7684 28.3041 23.7432 28.2297 23.7452C28.1555 23.7499 28.0808 23.7759 28.0055 23.8233C27.9305 23.8733 27.8591 23.9396 27.7913 24.0222C27.7687 24.0498 27.7434 24.0836 27.7154 24.1236C27.6876 24.1663 27.6627 24.2114 27.6408 24.2589C27.6191 24.309 27.6039 24.3584 27.5954 24.4072C27.5884 24.4572 27.5917 24.5048 27.6055 24.5501C27.6196 24.598 27.6498 24.641 27.6961 24.6791C27.7498 24.7231 27.8059 24.7449 27.8644 24.7444C27.923 24.744 27.9828 24.7288 28.0438 24.6988C28.1051 24.6714 28.1694 24.6345 28.2367 24.5879C28.3041 24.5413 28.3719 24.4926 28.4402 24.4419C28.5084 24.3912 28.5777 24.3438 28.648 24.2996C28.717 24.2568 28.7864 24.224 28.8561 24.2011C28.9258 24.1783 28.995 24.1708 29.0637 24.1787C29.1327 24.1892 29.2005 24.2218 29.2672 24.2766C29.3252 24.3241 29.3685 24.3791 29.3973 24.4416C29.4261 24.504 29.4376 24.5728 29.4317 24.648C29.4272 24.7244 29.404 24.8073 29.3622 24.8967C29.3204 24.9861 29.2579 25.0815 29.1746 25.1829C29.1115 25.2597 29.0447 25.325 28.974 25.3785C28.9034 25.4321 28.8298 25.47 28.7534 25.4922C28.6785 25.5156 28.6036 25.5196 28.5288 25.5043C28.4543 25.4917 28.3808 25.4556 28.3083 25.3961L28.2822 25.3747L28.4214 25.2052L28.4584 25.2355C28.512 25.2795 28.5706 25.2997 28.6342 25.2961C28.6992 25.2937 28.7651 25.2726 28.8318 25.2327C28.8987 25.1954 28.9613 25.1413 29.0196 25.0703C29.0993 24.9732 29.1546 24.8851 29.1854 24.8062C29.2178 24.7284 29.229 24.66 29.2192 24.601C29.2108 24.5432 29.1856 24.4971 29.1436 24.4626C29.0943 24.4221 29.0411 24.4027 28.984 24.4044C28.9283 24.4072 28.87 24.4236 28.809 24.4536C28.7495 24.4847 28.6866 24.5229 28.6204 24.5681C28.5545 24.6158 28.4874 24.6651 28.4192 24.7158C28.3509 24.7665 28.2815 24.8126 28.211 24.8542C28.1407 24.8984 28.07 24.9313 27.9989 24.953C27.928 24.9773 27.8581 24.9842 27.7891 24.9737C27.7189 24.9646 27.6498 24.9321 27.5817 24.8762C27.4788 24.7917 27.4161 24.6967 27.3937 24.5909C27.3701 24.4867 27.38 24.3771 27.4233 24.2623C27.4666 24.1475 27.537 24.0306 27.6346 23.9118Z" fill="white"/>
<path d="M24.758 26.9516C24.9233 26.8447 25.0833 26.7848 25.2379 26.7719C25.391 26.76 25.5377 26.7969 25.6779 26.8826C25.8166 26.9693 25.9465 27.1063 26.0677 27.2937C26.2489 27.574 26.3166 27.8272 26.2708 28.0533C26.226 28.281 26.0816 28.4737 25.8375 28.6315C25.6974 28.7221 25.5598 28.7787 25.4248 28.8013C25.2893 28.8264 25.1625 28.8135 25.0447 28.7624C24.9262 28.7139 24.8228 28.6212 24.7342 28.4842L24.9231 28.362C24.9893 28.4644 25.0645 28.5341 25.1488 28.5712C25.234 28.6098 25.3262 28.6194 25.4253 28.6C25.5238 28.5832 25.6274 28.5396 25.7361 28.4694C25.8526 28.394 25.9394 28.3055 25.9964 28.2039C26.0535 28.1022 26.0741 27.9873 26.0582 27.8592C26.0433 27.7326 25.9855 27.5913 25.8847 27.4355L25.8527 27.3859C25.7539 27.2331 25.6504 27.1248 25.542 27.0609C25.4337 26.997 25.322 26.971 25.2069 26.9829C25.0918 26.9948 24.9752 27.0389 24.8571 27.1153C24.7485 27.1855 24.665 27.2618 24.6066 27.3442C24.5493 27.4282 24.5202 27.5162 24.5194 27.6083C24.5197 27.7019 24.5529 27.7999 24.6191 27.9022L24.4348 28.0213C24.3453 27.8828 24.3029 27.7482 24.3079 27.6178C24.3113 27.4883 24.3522 27.3669 24.4308 27.2536C24.5104 27.1419 24.6194 27.0412 24.758 26.9516Z" fill="white"/>
<path d="M20.8991 29.0404C21.0915 28.9906 21.2668 28.983 21.4249 29.0176C21.5816 29.0545 21.7157 29.135 21.8273 29.2592C21.9388 29.3833 22.0223 29.5525 22.0777 29.7667C22.1336 29.9827 22.1427 30.1711 22.1049 30.332C22.0676 30.4946 21.9891 30.6292 21.8695 30.7357C21.7485 30.8445 21.5918 30.9238 21.3994 30.9736C21.2052 31.0238 21.0297 31.0305 20.873 30.9936C20.7149 30.959 20.581 30.8794 20.4712 30.7548C20.3602 30.6324 20.2767 30.4633 20.2208 30.2473C20.1654 30.0331 20.1563 29.8446 20.1936 29.682C20.2291 29.5198 20.3073 29.3843 20.4283 29.2755C20.5479 29.169 20.7049 29.0906 20.8991 29.0404ZM20.947 29.2255C20.8399 29.2532 20.7463 29.292 20.6662 29.3418C20.5866 29.3934 20.524 29.458 20.4782 29.5357C20.4325 29.6134 20.4055 29.7037 20.3972 29.8065C20.3872 29.9098 20.3993 30.0277 20.4336 30.1602L20.4484 30.2174C20.4831 30.3517 20.53 30.4616 20.5889 30.5471C20.646 30.633 20.7134 30.6989 20.7911 30.7446C20.8688 30.7904 20.9547 30.8156 21.0489 30.8202C21.1435 30.8267 21.2444 30.8161 21.3515 30.7884C21.4586 30.7607 21.552 30.721 21.6316 30.6694C21.7098 30.6201 21.7718 30.5566 21.8176 30.479C21.8633 30.4013 21.8912 30.3108 21.9013 30.2074C21.9095 30.1046 21.8963 29.986 21.8615 29.8517L21.8467 29.7945C21.8124 29.662 21.7667 29.5528 21.7096 29.4668C21.6507 29.3814 21.5824 29.3158 21.5047 29.27C21.427 29.2243 21.3418 29.1979 21.2489 29.191C21.1547 29.1863 21.0541 29.1978 20.947 29.2255Z" fill="white"/>
<path d="M16.9175 29.8386L17.5255 31.8093L17.2869 31.7945L16.8586 30.3817C16.8492 30.351 16.8392 30.3156 16.8285 30.2755C16.8177 30.2373 16.8069 30.1991 16.7962 30.1608C16.7853 30.1245 16.7761 30.091 16.7685 30.0605L16.7489 30.0593C16.7378 30.0868 16.7246 30.1179 16.7093 30.1526C16.6939 30.1893 16.6785 30.2259 16.6631 30.2625C16.6475 30.301 16.6332 30.3349 16.6202 30.3641L16.0265 31.7166L15.7935 31.7022L16.6424 29.8216L16.9175 29.8386Z" fill="white"/>
<path d="M13.3246 29.5567L12.64 31.3606L11.2595 30.8367L11.3274 30.6579L12.5002 31.1029L12.7317 30.4929L11.6746 30.0917L11.7435 29.9103L12.8005 30.3114L13.049 29.6567L11.8605 29.2056L11.9283 29.0268L13.3246 29.5567Z" fill="white"/>
<path d="M9.50363 28.0601L8.30149 29.5692L7.50955 28.9383C7.40982 28.8589 7.34288 28.7744 7.30873 28.6849C7.27194 28.5956 7.26312 28.5059 7.28226 28.4157C7.29993 28.3243 7.34148 28.2375 7.4069 28.1554C7.49218 28.0483 7.58954 27.9773 7.69899 27.9422C7.8058 27.9074 7.9118 27.9068 8.01699 27.9402L8.21453 27.0332L8.40591 27.1857L8.21312 28.0461L8.83567 28.542L9.32984 27.9217L9.50363 28.0601ZM8.71651 28.6916L8.11595 28.2132C8.02649 28.1419 7.93448 28.113 7.83993 28.1264C7.7442 28.1412 7.65779 28.197 7.58069 28.2938C7.53396 28.3525 7.50523 28.4111 7.49452 28.4697C7.48381 28.5283 7.49095 28.5855 7.51596 28.6414C7.5398 28.6987 7.58325 28.7525 7.64631 28.8028L8.24687 29.2812L8.71651 28.6916Z" fill="white"/>
<path d="M4.24305 22.372L2.63246 23.018L2.88689 23.6523L2.70677 23.7245L2.11312 22.2445L2.29323 22.1722L2.54975 22.8118L4.16034 22.1658L4.24305 22.372Z" fill="white"/>
<path d="M3.00893 19.2243L1.0853 19.373L1.06817 19.1515L1.91222 19.0863L1.82595 17.9702L0.981903 18.0355L0.964779 17.8139L2.88842 17.6652L2.90554 17.8868L2.01943 17.9553L2.1057 19.0713L2.99181 19.0028L3.00893 19.2243Z" fill="white"/>
<path d="M2.75479 14.8066L0.878101 14.3588L1.22082 12.9225L1.40685 12.9669L1.1157 14.187L1.75038 14.3385L2.0128 13.2387L2.20157 13.2838L1.93914 14.3835L2.62033 14.5461L2.91539 13.3095L3.10142 13.3539L2.75479 14.8066Z" fill="white"/>
<path d="M5.20045 8.24637L3.7923 6.92743L4.43831 6.23773C4.52804 6.14193 4.62021 6.08055 4.71484 6.05358C4.80938 6.02395 4.90223 6.02357 4.99338 6.05243C5.08581 6.07991 5.17239 6.13147 5.25313 6.20709C5.33661 6.28528 5.39452 6.37293 5.42689 6.47003C5.45925 6.56714 5.46442 6.66447 5.44241 6.76202C5.41903 6.8583 5.36888 6.94749 5.29198 7.0296L4.79401 7.56125L5.35234 8.08421L5.20045 8.24637ZM4.65443 7.43051L5.14086 6.91117C5.2152 6.8318 5.25013 6.74377 5.24564 6.64708C5.23978 6.54911 5.19169 6.45783 5.10137 6.37323C5.04253 6.31811 4.98296 6.28159 4.92268 6.26367C4.86232 6.24309 4.8026 6.24239 4.74353 6.26157C4.6831 6.27946 4.62532 6.31783 4.57021 6.37668L4.08378 6.89601L4.65443 7.43051Z" fill="white"/>
<path d="M8.05423 5.25204L7.11608 3.56611L8.00082 3.07379C8.11224 3.01179 8.21584 2.98204 8.31164 2.98452C8.40816 2.98445 8.4945 3.01044 8.57066 3.06247C8.64846 3.11359 8.71288 3.18503 8.76394 3.27678C8.83049 3.39638 8.85917 3.51346 8.84996 3.62802C8.84148 3.74003 8.80175 3.83831 8.73078 3.92286L9.4944 4.45065L9.28058 4.56963L8.55823 4.06394L7.86273 4.45096L8.24838 5.14401L8.05423 5.25204ZM7.76973 4.28384L8.44066 3.91049C8.54061 3.85488 8.60238 3.78081 8.626 3.68827C8.6487 3.5941 8.62996 3.49295 8.56979 3.38482C8.53332 3.31928 8.49003 3.27041 8.43993 3.23821C8.38982 3.20601 8.33418 3.19084 8.27299 3.19271C8.21089 3.19293 8.14461 3.21264 8.07416 3.25185L7.40323 3.62519L7.76973 4.28384Z" fill="white"/>
<path d="M12.7868 3.03863C12.5914 3.07512 12.4161 3.07068 12.2607 3.02531C12.1069 2.97774 11.9786 2.88822 11.8758 2.75672C11.773 2.62523 11.7013 2.45074 11.6607 2.23325C11.6197 2.01392 11.6236 1.82531 11.6723 1.66744C11.7207 1.50771 11.8082 1.37883 11.9349 1.28079C12.063 1.18055 12.2248 1.11219 12.4202 1.0757C12.6174 1.03887 12.7929 1.04423 12.9468 1.09179C13.1021 1.13716 13.2302 1.22577 13.3312 1.35761C13.4336 1.48726 13.5053 1.66175 13.5462 1.88108C13.5869 2.09857 13.583 2.28717 13.5346 2.44689C13.4881 2.60627 13.4007 2.73608 13.2726 2.83631C13.1459 2.93435 12.984 3.00179 12.7868 3.03863ZM12.7517 2.85063C12.8604 2.83032 12.9564 2.79808 13.0398 2.75391C13.1227 2.70789 13.1897 2.6477 13.2406 2.57333C13.2916 2.49896 13.3247 2.41075 13.34 2.30871C13.3571 2.20633 13.3531 2.08787 13.328 1.95332L13.3171 1.89526C13.2917 1.75887 13.2525 1.64602 13.1995 1.55672C13.1485 1.46707 13.0857 1.39677 13.0114 1.34581C12.937 1.29485 12.853 1.2638 12.7594 1.25268C12.6654 1.23972 12.564 1.24339 12.4553 1.2637C12.3465 1.28401 12.2507 1.31717 12.1677 1.36319C12.0862 1.40701 12.02 1.46611 11.9691 1.54048C11.9181 1.61486 11.8841 1.70323 11.867 1.80562C11.8517 1.90765 11.8568 2.02687 11.8823 2.16326L11.8931 2.22132C11.9182 2.35587 11.9563 2.46797 12.0074 2.55761C12.0603 2.64691 12.124 2.71704 12.1983 2.76801C12.2727 2.81897 12.356 2.8511 12.4481 2.86441C12.5417 2.87554 12.6429 2.87094 12.7517 2.85063Z" fill="white"/>
<path d="M16.7071 2.53697C16.5842 2.52269 16.4814 2.48998 16.3986 2.43884C16.316 2.38583 16.2561 2.31658 16.2189 2.23109C16.1816 2.14559 16.17 2.04232 16.1841 1.92125L16.1925 1.84862L16.4132 1.87425L16.4025 1.96645C16.3899 2.07447 16.4119 2.16196 16.4683 2.22891C16.5249 2.294 16.6119 2.33336 16.7292 2.34699C16.8503 2.36105 16.9478 2.33369 17.0219 2.2649C17.0959 2.19611 17.1419 2.08442 17.1599 1.92983L17.3108 0.630756L17.5315 0.65639L17.3829 1.93591C17.3654 2.08677 17.3265 2.20968 17.2664 2.30463C17.2084 2.39793 17.1319 2.4636 17.0369 2.50165C16.9418 2.53969 16.8319 2.55146 16.7071 2.53697Z" fill="white"/>
<path d="M20.0933 2.92899L20.8581 1.15769L22.2137 1.74303L22.1379 1.91861L20.9863 1.42135L20.7276 2.02039L21.7656 2.46859L21.6887 2.64675L20.6507 2.19855L20.3731 2.84149L21.5402 3.34544L21.4644 3.52102L20.0933 2.92899Z" fill="white"/>
<path d="M24.4185 5.1327C24.27 5.00343 24.1682 4.86628 24.113 4.72125C24.0592 4.57745 24.054 4.4263 24.0976 4.2678C24.1425 4.11053 24.2382 3.94775 24.3847 3.77947C24.6039 3.52775 24.8284 3.39261 25.0584 3.37404C25.2896 3.35407 25.5148 3.43949 25.734 3.63033C25.8598 3.7399 25.9523 3.85644 26.0113 3.97994C26.073 4.10326 26.0957 4.22861 26.0792 4.356C26.0654 4.48321 26.005 4.60833 25.8979 4.73136L25.7282 4.58362C25.8082 4.4917 25.8543 4.40013 25.8666 4.30891C25.8802 4.21627 25.8639 4.12503 25.8178 4.03519C25.7744 3.94516 25.7039 3.85768 25.6063 3.77272C25.5016 3.68162 25.3926 3.62271 25.2791 3.59601C25.1656 3.5693 25.0495 3.58132 24.9307 3.63206C24.8132 3.68139 24.6935 3.77605 24.5716 3.91605L24.5328 3.9606C24.4134 4.09777 24.338 4.22725 24.3065 4.34903C24.2751 4.47082 24.281 4.58537 24.3243 4.69268C24.3676 4.79999 24.4423 4.89981 24.5484 4.99215C24.6459 5.0771 24.7424 5.13622 24.8377 5.16949C24.9343 5.20136 25.0269 5.20492 25.1156 5.18018C25.2054 5.15403 25.2904 5.09499 25.3704 5.00307L25.5359 5.14712C25.4275 5.27157 25.31 5.34947 25.1833 5.38083C25.0579 5.41342 24.9299 5.40765 24.7993 5.36353C24.6699 5.31799 24.543 5.24105 24.4185 5.1327Z" fill="white"/>
<path d="M27.3301 7.93394L28.8043 7.01857L28.4438 6.43795L28.6087 6.33559L29.4499 7.69037L29.285 7.79273L28.9215 7.20733L27.4473 8.1227L27.3301 7.93394Z" fill="white"/>
</svg>
