<svg width="99" height="22" viewBox="0 0 99 22" fill="none" xmlns="http://www.w3.org/2000/svg">
<path d="M5.25875 21.2826C5.21375 21.2826 5.13125 21.2676 5.01125 21.2376C4.83125 21.1776 4.71875 20.9601 4.67375 20.5851C4.64375 20.5101 4.62875 20.4276 4.62875 20.3376C4.62875 20.2476 4.62875 20.1501 4.62875 20.0451C4.62875 19.9251 4.62875 19.8051 4.62875 19.6851C4.64375 19.5651 4.65875 19.4451 4.67375 19.3251C4.74875 18.5601 4.93625 17.7426 5.23625 16.8726C5.52125 16.0026 5.87375 15.1101 6.29375 14.1951C6.72875 13.2651 7.20875 12.3276 7.73375 11.3826L9.28625 8.57012C9.79625 7.65512 10.2838 6.76262 10.7488 5.89262C11.2288 5.02262 11.6338 4.20512 11.9638 3.44012C11.9788 3.41012 11.9938 3.35762 12.0088 3.28262C12.0238 3.19262 12.0163 3.14762 11.9863 3.14762C11.9413 3.22262 11.8213 3.43262 11.6263 3.77762C11.4313 4.10762 11.2138 4.49012 10.9738 4.92512C10.7338 5.34512 10.5013 5.74262 10.2763 6.11762C10.0663 6.47762 9.91625 6.72512 9.82625 6.86012C9.07625 8.04512 8.29625 9.19262 7.48625 10.3026C6.69125 11.3976 5.76125 12.3276 4.69625 13.0926C4.41125 13.3026 4.07375 13.4901 3.68375 13.6551C3.29375 13.8051 2.89625 13.9251 2.49125 14.0151C2.10125 14.1051 1.75625 14.1501 1.45625 14.1501C1.02125 14.1201 0.68375 13.9476 0.44375 13.6326C0.20375 13.3176 0.08375 12.9276 0.08375 12.4626C0.08375 12.0426 0.18875 11.6001 0.39875 11.1351C0.56375 10.7751 0.84125 10.3551 1.23125 9.87512C1.63625 9.38012 2.11625 8.90012 2.67125 8.43512C3.22625 7.95512 3.83375 7.56512 4.49375 7.26512C4.53875 7.23512 4.56125 7.22762 4.56125 7.24262C4.57625 7.24262 4.56875 7.25762 4.53875 7.28762L4.33625 7.51262C3.45125 8.32262 2.77625 9.09512 2.31125 9.83012C1.86125 10.5501 1.53125 11.1951 1.32125 11.7651C1.14125 12.3051 1.05125 12.7251 1.05125 13.0251C1.05125 13.5351 1.27625 13.7676 1.72625 13.7226C1.95125 13.7076 2.24375 13.6176 2.60375 13.4526C2.96375 13.2726 3.30875 13.0776 3.63875 12.8676C3.96875 12.6576 4.21625 12.4776 4.38125 12.3276C5.07125 11.7576 5.76125 11.0526 6.45125 10.2126C7.14125 9.37262 7.80125 8.51762 8.43125 7.64762C8.77625 7.16762 9.13625 6.65762 9.51125 6.11762C9.90125 5.56262 10.2613 5.04512 10.5913 4.56512C10.9363 4.08512 11.2213 3.71762 11.4463 3.46262L11.8738 2.99012C11.9938 2.85512 12.1588 2.78762 12.3688 2.78762C12.6538 2.78762 12.8488 2.87012 12.9538 3.03512C13.0738 3.20012 13.1338 3.38762 13.1338 3.59762C13.1338 3.73262 13.1113 3.86762 13.0663 4.00262C13.0363 4.12262 12.9913 4.24262 12.9312 4.36262C12.6013 5.00762 12.2113 5.72012 11.7613 6.50012C11.2963 7.29512 10.8163 8.12762 10.3213 8.99762C9.82625 9.85262 9.33125 10.7301 8.83625 11.6301C8.32625 12.5451 7.86125 13.4301 7.44125 14.2851C7.00625 15.1551 6.62375 15.9951 6.29375 16.8051C5.97875 17.6001 5.75375 18.3276 5.61875 18.9876C5.51375 19.4826 5.45375 19.9176 5.43875 20.2926C5.42375 20.3376 5.41625 20.4051 5.41625 20.4951C5.41625 20.7351 5.45375 20.8551 5.52875 20.8551C5.58875 20.8551 5.70125 20.6901 5.86625 20.3601C6.03125 20.0451 6.21125 19.6626 6.40625 19.2126C6.61625 18.7626 6.81125 18.3276 6.99125 17.9076C7.20125 17.4276 7.44875 16.8501 7.73375 16.1751C8.01875 15.5001 8.30375 14.8251 8.58875 14.1501C8.88875 13.4601 9.15125 12.8526 9.37625 12.3276C9.61625 11.8026 9.91625 11.1576 10.2763 10.3926C10.6363 9.62762 11.0263 8.86262 11.4463 8.09762C11.8813 7.31762 12.3163 6.64262 12.7513 6.07262C13.3813 5.21762 13.9738 4.52762 14.5288 4.00262C15.0988 3.47762 15.6688 3.08012 16.2388 2.81012C16.8238 2.54012 17.4688 2.36012 18.1738 2.27012C18.2338 2.25512 18.2938 2.24762 18.3538 2.24762C18.4138 2.24762 18.4738 2.24762 18.5338 2.24762C19.3738 2.24762 20.0638 2.52512 20.6038 3.08012C21.1438 3.62012 21.4138 4.33262 21.4138 5.21762C21.4288 5.90762 21.2713 6.58262 20.9413 7.24262C20.6113 7.88762 20.1613 8.49512 19.5913 9.06512C19.0213 9.62012 18.3838 10.1076 17.6788 10.5276C16.8988 11.0076 16.0813 11.3976 15.2263 11.6976C14.3863 11.9976 13.5613 12.1926 12.7513 12.2826C12.9613 12.5976 13.1713 12.9501 13.3813 13.3401C13.6063 13.7151 13.8088 14.0751 13.9888 14.4201C14.2438 14.8851 14.4838 15.3501 14.7088 15.8151C14.9338 16.2801 15.2263 16.8126 15.5863 17.4126C15.7963 17.7576 16.0288 18.1176 16.2838 18.4926C16.5388 18.8676 16.8013 19.1826 17.0713 19.4376C17.3413 19.6926 17.5963 19.8201 17.8363 19.8201C18.0463 19.8201 18.2263 19.6026 18.3763 19.1676C18.4963 18.7926 18.5638 18.3876 18.5788 17.9526C18.6088 17.5326 18.6238 17.1951 18.6238 16.9401C18.6238 16.8651 18.6463 16.8201 18.6913 16.8051C18.7513 16.7751 18.7888 16.8201 18.8038 16.9401C18.8338 17.1051 18.9163 17.3376 19.0513 17.6376C19.1863 17.9376 19.2538 18.3126 19.2538 18.7626C19.2538 19.2576 19.1038 19.6476 18.8038 19.9326C18.5188 20.2326 18.1813 20.4126 17.7913 20.4726C17.7013 20.4876 17.6113 20.4951 17.5213 20.4951C17.4463 20.5101 17.3638 20.5176 17.2738 20.5176C16.5988 20.5176 16.0288 20.3226 15.5638 19.9326C15.1138 19.5426 14.7088 18.9801 14.3488 18.2451C13.9888 17.5101 13.6138 16.6326 13.2238 15.6126C12.9688 14.8926 12.6988 14.2476 12.4138 13.6776C12.1288 13.0926 11.8512 12.6501 11.5812 12.3501C11.1013 12.3501 10.7788 12.3201 10.6138 12.2601C10.5688 12.2301 10.5238 12.2001 10.4788 12.1701C10.4488 12.1251 10.4563 12.0651 10.5013 11.9901C10.5613 11.8251 10.6813 11.6826 10.8613 11.5626C11.0563 11.4426 11.2438 11.3826 11.4238 11.3826C11.7838 11.3826 12.1288 11.5851 12.4588 11.9901C13.2238 11.9151 13.9588 11.6751 14.6638 11.2701C15.3838 10.8651 16.1263 10.3401 16.8913 9.69512C17.5063 9.17012 18.0538 8.63762 18.5338 8.09762C19.0288 7.54262 19.4788 6.85262 19.8838 6.02762C20.2288 5.32262 20.4013 4.73762 20.4013 4.27262C20.4013 3.79262 20.2588 3.43262 19.9738 3.19262C19.7038 2.95262 19.3288 2.83262 18.8488 2.83262C18.6538 2.83262 18.4513 2.85512 18.2413 2.90012C18.0313 2.93012 17.8213 2.98262 17.6113 3.05762C17.1013 3.22262 16.5913 3.47012 16.0813 3.80012C15.5713 4.13012 15.1063 4.52762 14.6863 4.99262C13.7413 6.05762 12.8788 7.19762 12.0987 8.41262C11.3338 9.62762 10.6513 10.8576 10.0513 12.1026C9.90125 12.4326 9.73625 12.8601 9.55625 13.3851C9.45125 13.6701 9.32375 14.0226 9.17375 14.4426C9.02375 14.8626 8.86625 15.2976 8.70125 15.7476C8.55125 16.1826 8.41625 16.5726 8.29625 16.9176C8.05625 17.5626 7.80875 18.1626 7.55375 18.7176C7.29875 19.2726 7.03625 19.7601 6.76625 20.1801C6.49625 20.6001 6.22625 20.8926 5.95625 21.0576C5.86625 21.1176 5.76125 21.1701 5.64125 21.2151C5.52125 21.2601 5.39375 21.2826 5.25875 21.2826ZM21.1135 20.9901C20.5285 20.9901 20.0785 20.7501 19.7635 20.2701C19.4485 19.8051 19.291 19.1376 19.291 18.2676C19.291 18.1176 19.2985 17.9676 19.3135 17.8176C19.3135 17.6676 19.321 17.5101 19.336 17.3451C19.426 16.6101 19.651 15.8076 20.011 14.9376C20.386 14.0676 20.956 13.1376 21.721 12.1476C22.231 11.4876 22.786 10.9926 23.386 10.6626C23.986 10.3326 24.5635 10.1676 25.1185 10.1676C25.5085 10.1676 25.8535 10.2426 26.1535 10.3926C26.5135 10.5876 26.6935 10.9401 26.6935 11.4501C26.6935 11.8251 26.5585 12.2451 26.2885 12.7101C26.0185 13.1601 25.561 13.5951 24.916 14.0151C24.061 14.5551 23.3485 14.9151 22.7785 15.0951C22.2085 15.2751 21.751 15.3726 21.406 15.3876C21.286 15.5526 21.166 15.8151 21.046 16.1751C20.926 16.5201 20.821 16.8876 20.731 17.2776C20.656 17.6526 20.6035 17.9901 20.5735 18.2901C20.5735 18.3501 20.566 18.4101 20.551 18.4701C20.551 18.5451 20.551 18.6201 20.551 18.6951C20.551 19.1451 20.626 19.5276 20.776 19.8426C20.941 20.1726 21.226 20.3376 21.631 20.3376C21.991 20.3376 22.396 20.2026 22.846 19.9326C23.296 19.6776 23.7385 19.3626 24.1735 18.9876C24.6235 18.6276 25.0135 18.2751 25.3435 17.9301C25.6885 17.6001 25.9285 17.3526 26.0635 17.1876L27.7285 15.2526L28.6285 14.2176C28.6735 14.1726 28.711 14.1501 28.741 14.1501C28.831 14.1501 28.876 14.2101 28.876 14.3301C28.876 14.3751 28.8385 14.4501 28.7635 14.5551C28.6135 14.7651 28.441 14.9826 28.246 15.2076C28.066 15.4326 27.8935 15.6426 27.7285 15.8376C27.5185 16.0776 27.256 16.3851 26.941 16.7601C26.641 17.1351 26.3185 17.5251 25.9735 17.9301C25.6435 18.3351 25.321 18.6876 25.006 18.9876C24.436 19.5426 23.821 20.0151 23.161 20.4051C22.516 20.7951 21.8335 20.9901 21.1135 20.9901ZM21.6085 15.0276C21.8185 15.0126 22.081 14.9301 22.396 14.7801C22.711 14.6301 23.041 14.4501 23.386 14.2401C23.731 14.0301 24.046 13.8201 24.331 13.6101C24.631 13.3851 24.871 13.1976 25.051 13.0476C25.396 12.7776 25.651 12.4776 25.816 12.1476C25.981 11.8176 26.0635 11.5326 26.0635 11.2926C26.0635 11.1276 26.0185 10.9851 25.9285 10.8651C25.8535 10.7451 25.7335 10.6851 25.5685 10.6851C25.2535 10.6851 24.9085 10.8426 24.5335 11.1576C24.1735 11.4576 23.806 11.8476 23.431 12.3276C23.071 12.7926 22.726 13.2726 22.396 13.7676C22.081 14.2476 21.8185 14.6676 21.6085 15.0276ZM26.5413 21.3276C25.9863 21.3576 25.5438 21.2526 25.2138 21.0126C24.8838 20.7876 24.7188 20.5101 24.7188 20.1801C24.7188 19.9701 24.8013 19.7451 24.9663 19.5051C25.1163 19.2801 25.3563 19.0701 25.6863 18.8751C26.3163 18.5001 27.0288 18.2301 27.8238 18.0651C28.6188 17.9151 29.4213 17.7126 30.2313 17.4576L30.6588 16.5576C30.8388 16.1676 31.0188 15.6651 31.1988 15.0501C31.3788 14.4201 31.5363 13.7751 31.6713 13.1151C31.8063 12.4551 31.8963 11.9001 31.9413 11.4501C31.5063 11.8851 31.0863 12.3201 30.6813 12.7551C30.2913 13.1751 29.8788 13.6326 29.4438 14.1276C29.0088 14.6226 28.5138 15.1926 27.9588 15.8376C27.8688 15.9426 27.8013 15.9951 27.7563 15.9951C27.7113 15.9951 27.6888 15.9576 27.6888 15.8826C27.6888 15.7026 27.7788 15.5001 27.9588 15.2751L29.5788 13.3401C29.8338 13.0401 30.1113 12.7326 30.4113 12.4176C30.7113 12.1026 31.0188 11.7801 31.3338 11.4501L31.8963 10.8651C31.9413 10.6101 32.0088 10.3401 32.0988 10.0551C32.1888 9.77012 32.3163 9.53012 32.4813 9.33512C32.6613 9.14012 32.8938 9.04262 33.1788 9.04262C33.4788 9.04262 33.6813 9.12512 33.7863 9.29012C33.8913 9.45512 33.9213 9.62012 33.8763 9.78512C33.7563 9.83012 33.5463 9.98762 33.2463 10.2576C32.9463 10.5126 32.6538 10.7676 32.3688 11.0226C32.3838 11.1576 32.3913 11.3076 32.3913 11.4726C32.3913 11.6226 32.3913 11.7876 32.3913 11.9676C32.3913 12.3276 32.3763 12.7326 32.3463 13.1826C32.3313 13.6176 32.2863 14.1051 32.2113 14.6451C32.0913 15.4401 31.9263 16.1751 31.7163 16.8501C32.0913 16.6551 32.4513 16.4376 32.7963 16.1976C33.1413 15.9426 33.4863 15.6351 33.8313 15.2751C33.9513 15.1401 34.0713 15.0051 34.1913 14.8701C34.3113 14.7351 34.4313 14.5926 34.5513 14.4426C34.5813 14.4126 34.6113 14.3976 34.6413 14.3976C34.6863 14.3976 34.7238 14.4351 34.7538 14.5101C34.7988 14.5851 34.7988 14.6526 34.7538 14.7126C34.4838 15.0876 34.1763 15.4476 33.8313 15.7926C33.5163 16.1076 33.1638 16.4001 32.7738 16.6701C32.3838 16.9251 31.9713 17.1651 31.5363 17.3901C31.1013 18.5001 30.4788 19.4076 29.6688 20.1126C28.8588 20.8326 27.8163 21.2376 26.5413 21.3276ZM26.0463 20.8101C26.2113 20.8101 26.3913 20.7876 26.5863 20.7426C27.1113 20.6226 27.6588 20.3526 28.2288 19.9326C28.7988 19.5276 29.3538 18.8901 29.8938 18.0201C29.2338 18.2151 28.5813 18.3876 27.9363 18.5376C27.2763 18.6876 26.6313 18.9426 26.0013 19.3026C25.5063 19.5876 25.2588 19.9101 25.2588 20.2701C25.2588 20.6301 25.5213 20.8101 26.0463 20.8101ZM39.2056 7.91762C38.8156 7.91762 38.6206 7.73012 38.6206 7.35512C38.6206 7.13012 38.7031 6.94262 38.8681 6.79262C39.0331 6.62762 39.2131 6.54512 39.4081 6.54512C39.6031 6.54512 39.7531 6.61262 39.8581 6.74762C39.9781 6.88262 40.0231 7.04762 39.9931 7.24262C39.9481 7.43762 39.8506 7.60262 39.7006 7.73762C39.5656 7.85762 39.4006 7.91762 39.2056 7.91762ZM35.5606 17.7501C34.7806 17.7501 34.3906 17.2626 34.3906 16.2876C34.3906 16.0776 34.4131 15.8376 34.4581 15.5676C34.5181 15.2526 34.6306 14.8776 34.7956 14.4426C34.9756 13.9926 35.1706 13.5501 35.3806 13.1151C35.6056 12.6651 35.8081 12.2826 35.9881 11.9676C36.1381 11.7276 36.3106 11.4426 36.5056 11.1126C36.7006 10.7826 36.8881 10.4751 37.0681 10.1901C37.2481 9.90512 37.3606 9.71762 37.4056 9.62762C37.4956 9.43262 37.6756 9.28262 37.9456 9.17762C38.2156 9.05762 38.4556 8.99762 38.6656 8.99762C38.9056 8.99762 39.0256 9.06512 39.0256 9.20012C39.0256 9.29012 38.9956 9.37262 38.9356 9.44762C38.6506 9.91262 38.3131 10.4526 37.9231 11.0676C37.5481 11.6826 37.1806 12.3126 36.8206 12.9576C36.4606 13.6026 36.1606 14.2176 35.9206 14.8026C35.6806 15.3876 35.5606 15.8901 35.5606 16.3101C35.5606 16.5351 35.5981 16.7151 35.6731 16.8501C35.7631 16.9851 35.9206 17.0526 36.1456 17.0526C36.3856 17.0526 36.6556 16.9401 36.9556 16.7151C37.2706 16.4751 37.5706 16.2126 37.8556 15.9276C38.1556 15.6276 38.3806 15.3951 38.5306 15.2301L38.9806 14.7576C39.0556 14.6826 39.1231 14.6076 39.1831 14.5326C39.2431 14.4426 39.3031 14.3601 39.3631 14.2851C39.4081 14.2401 39.4456 14.2176 39.4756 14.2176C39.5656 14.2176 39.6106 14.2851 39.6106 14.4201C39.6106 14.4951 39.5806 14.5626 39.5206 14.6226C39.3556 14.8326 39.1906 15.0351 39.0256 15.2301C38.8606 15.4251 38.6881 15.6201 38.5081 15.8151C38.1331 16.2651 37.6981 16.7001 37.2031 17.1201C36.7081 17.5401 36.1606 17.7501 35.5606 17.7501ZM43.1459 21.0351C42.8759 21.0351 42.6434 20.9451 42.4484 20.7651C42.2684 20.5851 42.1784 20.3076 42.1784 19.9326C42.1784 19.3776 42.3734 18.6051 42.7634 17.6151C43.1534 16.6101 43.6184 15.4851 44.1584 14.2401C43.8584 14.7351 43.4909 15.2676 43.0559 15.8376C42.6359 16.3926 42.1784 16.8651 41.6834 17.2551C41.1884 17.6451 40.6784 17.8401 40.1534 17.8401C39.6884 17.8401 39.3584 17.7276 39.1634 17.5026C38.9684 17.2626 38.8709 16.9626 38.8709 16.6026C38.8709 16.3776 38.9159 16.0926 39.0059 15.7476C39.1109 15.4026 39.2309 15.0651 39.3659 14.7351C39.5009 14.4051 39.6284 14.1501 39.7484 13.9701C40.1234 13.3551 40.5884 12.7551 41.1434 12.1701C41.7134 11.5851 42.3059 11.1051 42.9209 10.7301C43.5509 10.3401 44.1584 10.1451 44.7434 10.1451C45.1184 10.1451 45.5009 10.2351 45.8909 10.4151C46.2359 9.69512 46.5809 9.01262 46.9259 8.36762C47.2859 7.72262 47.6159 7.16012 47.9159 6.68012C48.4109 5.84012 48.8609 5.19512 49.2659 4.74512C49.6859 4.29512 50.0909 3.97262 50.4809 3.77762C50.8859 3.58262 51.3059 3.45512 51.7409 3.39512C50.7359 4.67012 49.8359 5.93012 49.0409 7.17512C48.2609 8.40512 47.5034 9.73262 46.7684 11.1576C46.7984 11.2476 46.8134 11.3151 46.8134 11.3601C46.8134 11.4651 46.7759 11.5476 46.7009 11.6076C46.6409 11.6676 46.5734 11.6976 46.4984 11.6976C46.3334 11.9976 46.1309 12.4026 45.8909 12.9126C45.6509 13.4226 45.3959 13.9851 45.1259 14.6001C44.8559 15.2001 44.5934 15.8151 44.3384 16.4451C44.0834 17.0751 43.8734 17.6676 43.7084 18.2226C43.4834 18.9126 43.3709 19.4001 43.3709 19.6851C43.3709 19.8351 43.4159 19.9101 43.5059 19.9101C43.7009 19.9101 44.0459 19.6401 44.5409 19.1001L45.5984 17.9751L46.3184 17.1876L47.9834 15.2526C48.1334 15.0876 48.2834 14.9151 48.4334 14.7351C48.5834 14.5551 48.7259 14.3826 48.8609 14.2176C48.9059 14.1726 48.9509 14.1501 48.9959 14.1501C49.0859 14.1501 49.1309 14.2026 49.1309 14.3076C49.1309 14.3676 49.0934 14.4501 49.0184 14.5551C48.8684 14.7651 48.6959 14.9826 48.5009 15.2076C48.3209 15.4326 48.1484 15.6426 47.9834 15.8376C47.9384 15.8826 47.8109 16.0326 47.6009 16.2876C47.4059 16.5426 47.1584 16.8576 46.8584 17.2326C46.5734 17.5926 46.2809 17.9676 45.9809 18.3576C45.6809 18.7476 45.4034 19.1076 45.1484 19.4376C44.8934 19.7826 44.6984 20.0451 44.5634 20.2251C44.3684 20.4801 44.1434 20.6751 43.8884 20.8101C43.6334 20.9601 43.3859 21.0351 43.1459 21.0351ZM40.3109 17.3001C40.5659 17.3001 40.9409 17.1051 41.4359 16.7151C41.7509 16.4751 42.1034 16.1451 42.4934 15.7251C42.8984 15.3051 43.2809 14.8926 43.6409 14.4876C44.0009 14.0676 44.2634 13.7451 44.4284 13.5201C44.6084 13.0851 44.8034 12.6351 45.0134 12.1701C45.2384 11.7051 45.4709 11.2326 45.7109 10.7526C45.5909 10.6926 45.4559 10.6626 45.3059 10.6626C44.9009 10.6626 44.4434 10.8426 43.9334 11.2026C43.4384 11.5626 42.9884 11.9601 42.5834 12.3951C42.0584 12.9351 41.5859 13.5201 41.1659 14.1501C40.7609 14.7651 40.4534 15.3276 40.2434 15.8376C40.0634 16.2576 39.9734 16.6026 39.9734 16.8726C39.9734 17.1576 40.0859 17.3001 40.3109 17.3001ZM49.8089 20.9901C49.2239 20.9901 48.7739 20.7501 48.4589 20.2701C48.1439 19.8051 47.9864 19.1376 47.9864 18.2676C47.9864 18.1176 47.9939 17.9676 48.0089 17.8176C48.0089 17.6676 48.0164 17.5101 48.0314 17.3451C48.1214 16.6101 48.3464 15.8076 48.7064 14.9376C49.0814 14.0676 49.6514 13.1376 50.4164 12.1476C50.9264 11.4876 51.4814 10.9926 52.0814 10.6626C52.6814 10.3326 53.2589 10.1676 53.8139 10.1676C54.2039 10.1676 54.5489 10.2426 54.8489 10.3926C55.2089 10.5876 55.3889 10.9401 55.3889 11.4501C55.3889 11.8251 55.2539 12.2451 54.9839 12.7101C54.7139 13.1601 54.2564 13.5951 53.6114 14.0151C52.7564 14.5551 52.0439 14.9151 51.4739 15.0951C50.9039 15.2751 50.4464 15.3726 50.1014 15.3876C49.9814 15.5526 49.8614 15.8151 49.7414 16.1751C49.6214 16.5201 49.5164 16.8876 49.4264 17.2776C49.3514 17.6526 49.2989 17.9901 49.2689 18.2901C49.2689 18.3501 49.2614 18.4101 49.2464 18.4701C49.2464 18.5451 49.2464 18.6201 49.2464 18.6951C49.2464 19.1451 49.3214 19.5276 49.4714 19.8426C49.6364 20.1726 49.9214 20.3376 50.3264 20.3376C50.6864 20.3376 51.0914 20.2026 51.5414 19.9326C51.9914 19.6776 52.4339 19.3626 52.8689 18.9876C53.3189 18.6276 53.7089 18.2751 54.0389 17.9301C54.3839 17.6001 54.6239 17.3526 54.7589 17.1876L56.4239 15.2526L57.3239 14.2176C57.3689 14.1726 57.4064 14.1501 57.4364 14.1501C57.5264 14.1501 57.5714 14.2101 57.5714 14.3301C57.5714 14.3751 57.5339 14.4501 57.4589 14.5551C57.3089 14.7651 57.1364 14.9826 56.9414 15.2076C56.7614 15.4326 56.5889 15.6426 56.4239 15.8376C56.2139 16.0776 55.9514 16.3851 55.6364 16.7601C55.3364 17.1351 55.0139 17.5251 54.6689 17.9301C54.3389 18.3351 54.0164 18.6876 53.7014 18.9876C53.1314 19.5426 52.5164 20.0151 51.8564 20.4051C51.2114 20.7951 50.5289 20.9901 49.8089 20.9901ZM50.3039 15.0276C50.5139 15.0126 50.7764 14.9301 51.0914 14.7801C51.4064 14.6301 51.7364 14.4501 52.0814 14.2401C52.4264 14.0301 52.7414 13.8201 53.0264 13.6101C53.3264 13.3851 53.5664 13.1976 53.7464 13.0476C54.0914 12.7776 54.3464 12.4776 54.5114 12.1476C54.6764 11.8176 54.7589 11.5326 54.7589 11.2926C54.7589 11.1276 54.7139 10.9851 54.6239 10.8651C54.5489 10.7451 54.4289 10.6851 54.2639 10.6851C53.9489 10.6851 53.6039 10.8426 53.2289 11.1576C52.8689 11.4576 52.5014 11.8476 52.1264 12.3276C51.7664 12.7926 51.4214 13.2726 51.0914 13.7676C50.7764 14.2476 50.5139 14.6676 50.3039 15.0276ZM61.8517 17.7726C61.5967 17.7726 61.4167 17.6751 61.3117 17.4801C61.2067 17.2851 61.1542 17.0526 61.1542 16.7826C61.1542 16.3026 61.2817 15.7551 61.5367 15.1401C61.8067 14.5251 62.1142 13.8951 62.4592 13.2501C62.8042 12.6051 63.1042 11.9976 63.3592 11.4276C63.6292 10.8426 63.7642 10.3476 63.7642 9.94262C63.7642 9.74762 63.7267 9.59012 63.6517 9.47012C63.5917 9.35012 63.4942 9.29012 63.3592 9.29012C63.1792 9.29012 62.9617 9.38762 62.7067 9.58262C62.4217 9.77762 62.0992 10.1001 61.7392 10.5501L60.9067 11.5851C60.4717 12.1251 60.0292 12.7026 59.5792 13.3176C59.1442 13.9176 58.7467 14.4801 58.3867 15.0051C58.0417 15.5301 57.7867 15.9501 57.6217 16.2651C57.4867 16.5051 57.3292 16.6251 57.1492 16.6251C57.0442 16.6251 56.9467 16.5726 56.8567 16.4676C56.7667 16.3626 56.7217 16.2276 56.7217 16.0626C56.7217 15.9576 56.7442 15.8376 56.7892 15.7026C57.3142 14.6976 57.8092 13.6251 58.2742 12.4851C58.7542 11.3451 59.2267 10.3101 59.6917 9.38012C59.8267 9.12512 60.0517 8.90762 60.3667 8.72762C60.6817 8.53262 60.9592 8.43512 61.1992 8.43512C61.4242 8.43512 61.5367 8.51762 61.5367 8.68262C61.5367 8.77262 61.4692 8.94512 61.3342 9.20012C61.1692 9.45512 60.9667 9.78512 60.7267 10.1901C60.4867 10.5951 60.2392 11.0226 59.9842 11.4726C59.7292 11.9226 59.4892 12.3501 59.2642 12.7551C59.0542 13.1601 58.8967 13.4901 58.7917 13.7451C58.9567 13.5201 59.1817 13.1826 59.4667 12.7326C59.7667 12.2826 60.1717 11.7576 60.6817 11.1576L61.4017 10.3026C61.8817 9.73262 62.3242 9.34262 62.7292 9.13262C63.1342 8.92262 63.5092 8.81762 63.8542 8.81762C64.1242 8.81762 64.3567 8.88512 64.5517 9.02012C64.7467 9.15512 64.8442 9.38762 64.8442 9.71762C64.8442 10.1076 64.7617 10.4976 64.5967 10.8876C64.4317 11.2626 64.2967 11.5626 64.1917 11.7876C64.0867 12.0276 63.9367 12.3576 63.7417 12.7776C63.5467 13.1976 63.3517 13.6476 63.1567 14.1276C62.9617 14.6076 62.7967 15.0576 62.6617 15.4776C62.5267 15.8976 62.4592 16.2201 62.4592 16.4451C62.4592 16.6401 62.5192 16.7376 62.6392 16.7376C62.7892 16.7376 62.9842 16.6626 63.2242 16.5126C63.4792 16.3476 63.7267 16.1676 63.9667 15.9726C64.2217 15.7776 64.4167 15.6201 64.5517 15.5001C65.0467 15.0501 65.5492 14.5251 66.0592 13.9251C66.1342 13.8351 66.1942 13.7901 66.2392 13.7901C66.2842 13.7901 66.3067 13.8351 66.3067 13.9251C66.3067 13.9701 66.2842 14.0301 66.2392 14.1051C66.2092 14.1801 66.1717 14.2626 66.1267 14.3526C66.0367 14.5026 65.8942 14.7051 65.6992 14.9601C65.5042 15.2001 65.3017 15.4326 65.0917 15.6576C64.7767 16.0026 64.4242 16.3326 64.0342 16.6476C63.6592 16.9626 63.2392 17.2476 62.7742 17.5026C62.6542 17.5626 62.5417 17.6151 62.4367 17.6601C62.3467 17.6901 62.2717 17.7126 62.2117 17.7276C62.1517 17.7426 62.0917 17.7501 62.0317 17.7501C61.9717 17.7651 61.9117 17.7726 61.8517 17.7726ZM65.9054 21.7101C65.6204 21.7101 65.3729 21.5901 65.1629 21.3501C64.9529 21.1101 64.8479 20.7351 64.8479 20.2251C64.8479 19.9401 64.8779 19.6476 64.9379 19.3476C64.9679 19.1976 65.0279 18.9051 65.1179 18.4701C65.2079 18.0351 65.3129 17.5926 65.4329 17.1426C65.5679 16.5876 65.7554 15.9576 65.9954 15.2526C66.2354 14.5326 66.5279 13.7751 66.8729 12.9801C67.1279 12.3501 67.3904 11.7576 67.6604 11.2026C67.9304 10.6476 68.2004 10.1076 68.4704 9.58262H65.3654C65.2004 9.58262 65.1179 9.54512 65.1179 9.47012C65.1179 9.30512 65.2829 9.22262 65.6129 9.22262H68.6729C69.0479 8.54762 69.4379 7.91012 69.8429 7.31012C70.2479 6.71012 70.6979 6.14762 71.1929 5.62262C71.4479 5.32262 71.6804 5.11262 71.8904 4.99262C72.1154 4.87262 72.3404 4.79012 72.5654 4.74512C72.8054 4.68512 73.0679 4.62512 73.3529 4.56512C72.6629 5.40512 72.0554 6.20012 71.5304 6.95012C71.0204 7.68512 70.5404 8.44262 70.0904 9.22262H73.4204C73.6004 9.22262 73.6904 9.26762 73.6904 9.35762C73.6904 9.40262 73.6454 9.45512 73.5554 9.51512C73.4804 9.56012 73.3604 9.58262 73.1954 9.58262H69.8879C69.5279 10.2126 69.1829 10.8801 68.8529 11.5851C68.5229 12.2751 68.1704 13.0326 67.7954 13.8576C67.4804 14.5476 67.1954 15.2901 66.9404 16.0851C66.7004 16.8651 66.5054 17.5851 66.3554 18.2451C66.2054 18.9051 66.1304 19.3776 66.1304 19.6626C66.1304 20.3526 66.3179 20.6976 66.6929 20.6976C66.8729 20.6976 67.0979 20.6076 67.3679 20.4276C67.9529 20.0676 68.4779 19.6926 68.9429 19.3026C69.4079 18.9276 69.8504 18.5301 70.2704 18.1101C70.4954 17.9001 70.7579 17.6301 71.0579 17.3001C71.3729 16.9701 71.6879 16.6326 72.0029 16.2876C72.3179 15.9426 72.5954 15.6351 72.8354 15.3651L73.2179 14.9376C73.2629 14.8926 73.3004 14.8701 73.3304 14.8701C73.4204 14.8701 73.4654 14.9301 73.4654 15.0501C73.4654 15.1251 73.4354 15.2001 73.3754 15.2751C73.3004 15.3951 73.2179 15.5076 73.1279 15.6126C73.0229 15.7176 72.9254 15.8301 72.8354 15.9501C72.1904 16.7451 71.4779 17.5476 70.6979 18.3576C69.9179 19.1676 69.1154 19.9101 68.2904 20.5851C67.9454 20.8551 67.5854 21.1101 67.2104 21.3501C66.8354 21.5901 66.4004 21.7101 65.9054 21.7101ZM78.3214 7.91762C77.9314 7.91762 77.7364 7.73012 77.7364 7.35512C77.7364 7.13012 77.8189 6.94262 77.9839 6.79262C78.1489 6.62762 78.3289 6.54512 78.5239 6.54512C78.7189 6.54512 78.8689 6.61262 78.9739 6.74762C79.0939 6.88262 79.1389 7.04762 79.1089 7.24262C79.0639 7.43762 78.9664 7.60262 78.8164 7.73762C78.6814 7.85762 78.5164 7.91762 78.3214 7.91762ZM74.6764 17.7501C73.8964 17.7501 73.5064 17.2626 73.5064 16.2876C73.5064 16.0776 73.5289 15.8376 73.5739 15.5676C73.6339 15.2526 73.7464 14.8776 73.9114 14.4426C74.0914 13.9926 74.2864 13.5501 74.4964 13.1151C74.7214 12.6651 74.9239 12.2826 75.1039 11.9676C75.2539 11.7276 75.4264 11.4426 75.6214 11.1126C75.8164 10.7826 76.0039 10.4751 76.1839 10.1901C76.3639 9.90512 76.4764 9.71762 76.5214 9.62762C76.6114 9.43262 76.7914 9.28262 77.0614 9.17762C77.3314 9.05762 77.5714 8.99762 77.7814 8.99762C78.0214 8.99762 78.1414 9.06512 78.1414 9.20012C78.1414 9.29012 78.1114 9.37262 78.0514 9.44762C77.7664 9.91262 77.4289 10.4526 77.0389 11.0676C76.6639 11.6826 76.2964 12.3126 75.9364 12.9576C75.5764 13.6026 75.2764 14.2176 75.0364 14.8026C74.7964 15.3876 74.6764 15.8901 74.6764 16.3101C74.6764 16.5351 74.7139 16.7151 74.7889 16.8501C74.8789 16.9851 75.0364 17.0526 75.2614 17.0526C75.5014 17.0526 75.7714 16.9401 76.0714 16.7151C76.3864 16.4751 76.6864 16.2126 76.9714 15.9276C77.2714 15.6276 77.4964 15.3951 77.6464 15.2301L78.0964 14.7576C78.1714 14.6826 78.2389 14.6076 78.2989 14.5326C78.3589 14.4426 78.4189 14.3601 78.4789 14.2851C78.5239 14.2401 78.5614 14.2176 78.5914 14.2176C78.6814 14.2176 78.7264 14.2851 78.7264 14.4201C78.7264 14.4951 78.6964 14.5626 78.6364 14.6226C78.4714 14.8326 78.3064 15.0351 78.1414 15.2301C77.9764 15.4251 77.8039 15.6201 77.6239 15.8151C77.2489 16.2651 76.8139 16.7001 76.3189 17.1201C75.8239 17.5401 75.2764 17.7501 74.6764 17.7501ZM83.1617 17.8401C82.5617 17.8401 82.2617 17.4501 82.2617 16.6701C82.2617 16.4001 82.3067 16.1001 82.3967 15.7701C82.4267 15.6651 82.4942 15.4926 82.5992 15.2526C82.7042 15.0126 82.8242 14.7501 82.9592 14.4651C83.0942 14.1651 83.2217 13.8876 83.3417 13.6326C83.4617 13.3626 83.5442 13.1526 83.5892 13.0026C83.2742 13.4826 82.9217 13.9626 82.5317 14.4426C82.1567 14.9076 81.7517 15.2976 81.3167 15.6126C80.8817 15.9276 80.4167 16.0851 79.9217 16.0851C79.4567 16.0701 79.1267 15.9426 78.9317 15.7026C78.7367 15.4626 78.6392 15.1701 78.6392 14.8251C78.6392 14.4201 78.7292 13.9776 78.9092 13.4976C79.0892 13.0176 79.2917 12.5901 79.5167 12.2151C79.9067 11.6001 80.3792 11.0001 80.9342 10.4151C81.4892 9.83012 82.0817 9.35012 82.7117 8.97512C83.3417 8.58512 83.9417 8.39012 84.5117 8.39012C84.8117 8.39012 85.1042 8.44262 85.3892 8.54762C85.6742 8.63762 85.9592 8.79512 86.2442 9.02012C86.4692 9.20012 86.5817 9.39512 86.5817 9.60512C86.5817 9.81512 86.4917 9.92012 86.3117 9.92012C86.1767 9.92012 86.0792 9.83012 86.0192 9.65012C85.8242 9.14012 85.5092 8.88512 85.0742 8.88512C84.6842 8.88512 84.2492 9.05762 83.7692 9.40262C83.2892 9.74762 82.8167 10.1601 82.3517 10.6401C81.8267 11.1651 81.3617 11.7426 80.9567 12.3726C80.5517 13.0026 80.2442 13.5726 80.0342 14.0826C79.8392 14.5476 79.7417 14.8926 79.7417 15.1176C79.7417 15.4026 79.8542 15.5451 80.0792 15.5451C80.3342 15.5451 80.7092 15.3501 81.2042 14.9601C81.5342 14.7051 81.8942 14.3751 82.2842 13.9701C82.6742 13.5501 83.0417 13.1376 83.3867 12.7326C83.7317 12.3276 84.0017 12.0126 84.1967 11.7876C84.3617 11.5326 84.4967 11.3301 84.6017 11.1801C84.6617 11.0901 84.7592 11.0226 84.8942 10.9776C85.0292 10.9326 85.1717 10.9101 85.3217 10.9101C85.5017 10.9101 85.6517 10.9476 85.7717 11.0226C85.8917 11.0826 85.9217 11.1801 85.8617 11.3151C85.8017 11.4501 85.6667 11.7126 85.4567 12.1026C85.2617 12.4776 85.0367 12.9051 84.7817 13.3851C84.5417 13.8651 84.3092 14.3226 84.0842 14.7576C83.8742 15.1926 83.7167 15.5301 83.6117 15.7701C83.4017 16.2351 83.2967 16.5801 83.2967 16.8051C83.2967 17.0001 83.3717 17.0976 83.5217 17.0976C83.6267 17.0976 83.7842 17.0376 83.9942 16.9176C84.3242 16.7526 84.6542 16.5201 84.9842 16.2201C85.3142 15.9051 85.6292 15.5751 85.9292 15.2301C86.0942 15.0651 86.2442 14.9076 86.3792 14.7576C86.5142 14.6076 86.6417 14.4501 86.7617 14.2851C86.8067 14.2401 86.8442 14.2176 86.8742 14.2176C86.9642 14.2176 87.0092 14.2851 87.0092 14.4201C87.0092 14.4951 86.9792 14.5626 86.9192 14.6226C86.7542 14.8326 86.5892 15.0351 86.4242 15.2301C86.2592 15.4251 86.0867 15.6201 85.9067 15.8151C85.7417 16.0101 85.5692 16.2051 85.3892 16.4001C85.2242 16.5801 85.0517 16.7526 84.8717 16.9176C84.5417 17.2326 84.2267 17.4651 83.9267 17.6151C83.6417 17.7651 83.3867 17.8401 83.1617 17.8401ZM86.5006 21.7101C86.2156 21.7101 85.9681 21.5901 85.7581 21.3501C85.5481 21.1101 85.4431 20.7351 85.4431 20.2251C85.4431 19.9401 85.4731 19.6476 85.5331 19.3476C85.7881 17.9376 86.1856 16.4526 86.7256 14.8926C87.2656 13.3326 87.9406 11.7876 88.7506 10.2576C87.8056 10.5726 87.0256 10.7301 86.4106 10.7301C86.1256 10.7301 85.9156 10.7076 85.7806 10.6626C85.6456 10.6026 85.5781 10.5426 85.5781 10.4826C85.5781 10.3926 85.7206 10.3551 86.0056 10.3701C86.0656 10.3851 86.1181 10.3926 86.1631 10.3926C86.2231 10.3926 86.2831 10.3926 86.3431 10.3926C86.7031 10.3926 87.1081 10.3401 87.5581 10.2351C88.0081 10.1151 88.4881 9.95762 88.9981 9.76262C89.8081 8.27762 90.7006 6.87512 91.6756 5.55512C92.6656 4.22012 93.7231 3.03512 94.8481 2.00012C95.2381 1.65512 95.6356 1.38512 96.0406 1.19012C96.4606 0.980121 96.8431 0.875121 97.1881 0.875121C97.4881 0.875121 97.7431 0.957621 97.9531 1.12262C98.1631 1.28762 98.3056 1.56512 98.3806 1.95512C98.3956 2.01512 98.4031 2.08262 98.4031 2.15762C98.4181 2.23262 98.4256 2.30762 98.4256 2.38262C98.4256 2.66762 98.3656 2.97512 98.2456 3.30512C97.8706 4.25012 97.1131 5.20262 95.9731 6.16262C95.4181 6.64262 94.8256 7.09262 94.1956 7.51262C93.5656 7.93262 92.9056 8.33012 92.2156 8.70512C91.5256 9.08012 90.8581 9.40262 90.2131 9.67262C89.7181 10.5276 89.2606 11.3976 88.8406 12.2826C88.4206 13.1676 88.0606 14.0376 87.7606 14.8926C87.4456 15.7626 87.1981 16.6026 87.0181 17.4126C86.8381 18.2076 86.7406 18.9576 86.7256 19.6626C86.7256 20.3226 86.8906 20.6526 87.2206 20.6526C87.4156 20.6526 87.6631 20.5776 87.9631 20.4276C88.4281 20.1576 88.8256 19.8801 89.1556 19.5951C89.4856 19.3101 89.8231 18.9726 90.1681 18.5826C90.3331 18.3876 90.5656 18.1026 90.8656 17.7276C91.1806 17.3376 91.5181 16.9251 91.8781 16.4901C92.2381 16.0401 92.5831 15.6276 92.9131 15.2526C93.2131 14.8926 93.5131 14.5476 93.8131 14.2176C93.8581 14.1726 93.8956 14.1501 93.9256 14.1501C94.0156 14.1501 94.0606 14.2101 94.0606 14.3301C94.0606 14.4051 94.0306 14.4801 93.9706 14.5551C93.8056 14.7651 93.6256 14.9826 93.4306 15.2076C93.2506 15.4326 93.0781 15.6426 92.9131 15.8376C92.8231 15.9276 92.6581 16.1226 92.4181 16.4226C92.1781 16.7076 91.8931 17.0526 91.5631 17.4576C91.2331 17.8476 90.8956 18.2451 90.5506 18.6501C90.2056 19.0701 89.8831 19.4526 89.5831 19.7976C89.2981 20.1426 89.0656 20.4051 88.8856 20.5851C88.5556 20.9001 88.1956 21.1626 87.8056 21.3726C87.4306 21.5976 86.9956 21.7101 86.5006 21.7101ZM90.5731 9.06512C91.3081 8.70512 92.0581 8.27762 92.8231 7.78262C93.5881 7.27262 94.3156 6.73262 95.0056 6.16262C95.6956 5.57762 96.2881 4.98512 96.7831 4.38512C97.2781 3.78512 97.6231 3.20012 97.8181 2.63012C97.8781 2.45012 97.9081 2.27012 97.9081 2.09012C97.9081 1.62512 97.7206 1.39262 97.3456 1.39262C97.1056 1.39262 96.8581 1.49762 96.6031 1.70762C95.5981 2.50262 94.5706 3.54512 93.5206 4.83512C92.4706 6.12512 91.4881 7.53512 90.5731 9.06512Z" fill="#30CFA6"/>
</svg>
