<svg width="95" height="95" viewBox="0 0 95 95" fill="none" xmlns="http://www.w3.org/2000/svg">
<g id="vscode-icons:file-type-css">
<path id="Vector" d="M17.5216 80.753L10.8538 5.9375H84.1463L77.4695 80.7411L47.4555 89.0625L17.5216 80.753Z" fill="#1572B6"/>
<path id="Vector_2" d="M47.5 82.7034L71.7547 75.9792L77.4606 12.0561H47.5V82.7034Z" fill="#33A9DC"/>
<path id="Vector_3" d="M47.5 39.1608H59.6422L60.4794 29.7647H47.5V20.5883H70.5078L70.2881 23.0494L68.0348 48.3372H47.5V39.1608Z" fill="white"/>
<path id="Vector_4" d="M47.5564 62.9909L47.5148 63.0028L37.2964 60.2419L36.6433 52.9239H27.4312L28.7167 67.3313L47.5119 72.5503L47.5564 72.5384V62.9909Z" fill="#EBEBEB"/>
<path id="Vector_5" d="M58.8614 47.9483L57.757 60.2359L47.5237 62.9969V72.5444L66.3337 67.3312L66.4733 65.7816L68.0675 47.9483H58.8614Z" fill="white"/>
<path id="Vector_6" d="M47.5327 20.5883V29.7647H25.368L25.1839 27.7014L24.7653 23.0494L24.5456 20.5883H47.5327ZM47.5 39.1608V48.3372H37.4092L37.2252 46.2739L36.8095 41.6219L36.5898 39.1608H47.5Z" fill="#EBEBEB"/>
</g>
</svg>
