<svg width="95" height="95" viewBox="0 0 95 95" fill="none" xmlns="http://www.w3.org/2000/svg">
<g id="vscode-icons:file-type-js-official">
<path id="Vector" d="M5.9375 5.9375H89.0625V89.0625H5.9375V5.9375Z" fill="#F5DE19"/>
<path id="Vector_2" d="M61.7767 70.8789C62.485 72.3176 63.5853 73.5268 64.951 74.3672C66.3167 75.2076 67.892 75.645 69.4955 75.6289C72.7314 75.6289 74.8006 74.0109 74.8006 71.7695C74.8006 69.0977 72.675 68.1417 69.1125 66.5831L67.1591 65.7459C61.5184 63.3442 57.7778 60.3369 57.7778 53.9778C57.7778 48.1205 62.2309 43.6584 69.2164 43.6584C71.4777 43.4951 73.7371 44.0012 75.7126 45.1136C77.6882 46.226 79.2925 47.8954 80.3255 49.9136L74.2187 53.8175C73.821 52.8168 73.1284 51.9606 72.2329 51.3626C71.3374 50.7645 70.2813 50.4528 69.2045 50.4688C68.7348 50.4217 68.2603 50.4731 67.8115 50.6195C67.3627 50.766 66.9493 51.0043 66.5976 51.3194C66.246 51.6344 65.9639 52.0192 65.7692 52.4493C65.5745 52.8795 65.4715 53.3454 65.4669 53.8175C65.4669 56.1598 66.9186 57.1098 70.2703 58.5675L72.2237 59.4047C78.8619 62.2517 82.6144 65.1522 82.6144 71.6745C82.6144 78.7075 77.0895 82.5609 69.6706 82.5609C66.78 82.7451 63.8978 82.0888 61.3718 80.6712C58.8459 79.2537 56.7842 77.1354 55.4355 74.572L61.7767 70.8789ZM34.1822 71.5558C35.4083 73.7319 36.5245 75.5725 39.2083 75.5725C41.7733 75.5725 43.3942 74.5691 43.3942 70.6652V44.1038H51.205V70.7691C51.205 78.8559 46.455 82.5372 39.5408 82.5372C37.0968 82.6708 34.6695 82.0617 32.5781 80.79C30.4867 79.5183 28.8291 77.6436 27.8231 75.4122L34.1822 71.5558Z" fill="black"/>
</g>
</svg>
